<svg xmlns="http://www.w3.org/2000/svg" width="48" height="48" viewBox="0 0 48 48" fill="none">
    <circle cx="24" cy="24" r="24" fill="#EFEFEF"/>
    <path d="M32.0894 22.2446C33.0725 21.2335 33.609 19.8871 33.5993 18.4556C33.5896 17.0239 33.0342 15.6858 32.037 14.6876C30.0568 12.7038 26.8318 12.7038 24.802 14.7428L18.5903 22.4258L17.4036 21.5721C16.7929 21.1317 16.3432 20.5936 16.1012 20.0145C15.4933 18.5574 15.8274 16.8343 16.9345 15.7269C18.3483 14.3081 20.7411 14.3081 22.1549 15.7269L23.1367 14.6876C21.1564 12.7024 17.933 12.7024 15.9527 14.6876C13.6858 16.96 14.015 20.8962 16.5949 22.76L17.6855 23.5446L15.9003 25.7534C15.1319 26.7072 14.5619 27.6387 14.4296 28.9029C14.2597 30.5275 14.8132 32.1711 15.9527 33.3119C16.9429 34.3031 18.2437 34.8001 19.5446 34.7987C19.5744 34.7987 19.6036 34.7907 19.6334 34.7901H28.445C29.8092 34.7901 31.0854 34.2648 32.037 33.3119C33.0355 32.3122 33.5911 30.9714 33.5993 29.5313C33.5993 26.6314 31.3083 24.2722 28.4918 24.2722H26.22V25.7223H28.4918C30.5311 25.7223 32.1912 27.4313 32.1912 29.527C32.1857 30.5705 31.7813 31.5448 31.0552 32.2725C30.3675 32.9607 29.4406 33.3403 28.445 33.3403C28.445 33.3403 23.1021 33.3403 23.1367 33.3119C24.6577 31.7911 25.1169 29.4193 24.2823 27.413C23.9385 26.5874 23.3197 25.8355 22.4945 25.238L19.7454 23.2584L25.8335 15.7269C27.25 14.3081 29.6414 14.311 31.0552 15.7269C31.7813 16.4534 32.1841 17.4248 32.1912 18.4653C32.198 19.5061 31.8089 20.4846 31.0936 21.2195L32.0894 22.2446ZM21.6858 26.4259C22.2965 26.8679 22.7475 27.4073 22.9869 27.9851C23.5947 29.4435 23.2604 31.1666 22.1549 32.2725C20.7411 33.6886 18.3483 33.6886 16.9345 32.2725C16.2084 31.5462 15.8054 30.5734 15.7986 29.534C15.7918 28.4932 16.1809 27.5148 16.9387 26.7304L18.8405 24.377L21.6858 26.4259Z" fill="#004B8B"/>
</svg>