<svg xmlns="http://www.w3.org/2000/svg" width="49" height="48" viewBox="0 0 49 48" fill="none">
    <path d="M0.5 24C0.5 37.2548 11.2452 48 24.5 48C37.7548 48 48.5 37.2548 48.5 24C48.5 10.7452 37.7548 0 24.5 0C11.2452 0 0.5 10.7452 0.5 24Z" fill="black"/>
    <path d="M24.7662 16.8942C25.7696 16.8942 27.0389 16.2108 27.7884 15.3035C28.4654 14.4787 28.9611 13.3239 28.9611 12.1691C28.9611 12.016 28.949 11.851 28.9127 11.7332C27.7884 11.7803 26.4466 12.4873 25.6366 13.4417C24.9959 14.1723 24.4156 15.3035 24.4156 16.47C24.4156 16.635 24.4398 16.8117 24.464 16.8707C24.5365 16.8824 24.6453 16.8942 24.7662 16.8942ZM21.2242 34.1214C22.6023 34.1214 23.2067 33.1905 24.9234 33.1905C26.64 33.1905 27.051 34.086 28.5742 34.086C30.0974 34.086 31.0766 32.6956 32.0316 31.3287C33.0955 29.7616 33.5307 28.2297 33.5669 28.159C33.4702 28.1355 30.5931 26.9454 30.5931 23.6343C30.5931 20.7591 32.8658 19.463 32.9867 19.3687C31.4876 17.2006 29.2028 17.1535 28.5863 17.1535C26.9059 17.1535 25.5278 18.1786 24.6574 18.1786C23.7266 18.1786 22.4935 17.2124 21.0307 17.2124C18.2503 17.2124 15.4336 19.5219 15.4336 23.8699C15.4336 26.5683 16.4853 29.4316 17.7667 31.2816C18.8668 32.8488 19.834 34.1332 21.2242 34.1332V34.1214Z" fill="white"/>
</svg>