<svg width="20" height="21" viewBox="0 0 20 21" fill="none" xmlns="http://www.w3.org/2000/svg">
<path d="M7.5 15.5C7.5 15.5 7.5 18 10.0387 18C12.5774 18 12.5774 15.5 12.5774 15.5" stroke="black" stroke-width="2" stroke-linejoin="round"/>
<path d="M5.82981 6.92453L4.62841 13.1192C4.38903 14.3536 5.3345 15.5 6.59183 15.5H7.50002H12.5H13.4082C14.6655 15.5 15.611 14.3536 15.3716 13.1192L14.1702 6.92453C14.1679 6.91234 14.1658 6.90194 14.163 6.88984C14.0999 6.61575 13.207 3 10 3C6.79303 3 5.90012 6.61575 5.83704 6.88984C5.83425 6.90194 5.83217 6.91234 5.82981 6.92453Z" stroke="black" stroke-width="2" stroke-linejoin="round"/>
<path d="M16.6667 6.33333C16.25 4.66667 15.8334 3.83333 15 3" stroke="black" stroke-width="2" stroke-linecap="round" stroke-linejoin="round"/>
<path d="M3.33331 6.33333C3.74998 4.66667 4.16665 3.83333 4.99998 3" stroke="black" stroke-width="2" stroke-linecap="round" stroke-linejoin="round"/>
</svg>
