<svg xmlns="http://www.w3.org/2000/svg" width="41" height="40" viewBox="0 0 41 40" fill="none">
    <path d="M40.5 19.9994C40.5 31.0459 31.5452 40.0001 20.5 40.0001C9.45469 40.0001 0.5 31.0459 0.5 19.9994C0.5 8.95476 9.45469 0 20.5 0C31.5452 0 40.5 8.95476 40.5 19.9994Z" fill="#41B649"/>
    <path d="M21.6832 18.9639C21.1649 18.9639 20.7441 19.3839 20.7441 19.9024C20.7441 20.4207 21.1649 20.8408 21.6832 20.8408C22.2016 20.8408 22.6217 20.4207 22.6217 19.9024C22.6217 19.3839 22.2016 18.9639 21.6832 18.9639Z" fill="white"/>
    <path d="M26.8237 19.0337C26.3443 19.0337 25.9551 19.4229 25.9551 19.9023C25.9551 20.3816 26.3443 20.7715 26.8237 20.7715C27.303 20.7715 27.6922 20.3816 27.6922 19.9023C27.6922 19.4229 27.303 19.0337 26.8237 19.0337Z" fill="white"/>
    <path d="M27.6455 11.5991H12.9571C10.7923 11.5991 9.03809 13.3539 9.03809 15.5194V23.1275C9.03809 25.2917 10.7923 27.0471 12.9571 27.0471H18.4791L20.3013 30.6417L22.366 27.0471H27.6455C29.8104 27.0471 31.5658 25.2917 31.5658 23.1275V15.5194C31.5658 13.3539 29.8104 11.5991 27.6455 11.5991ZM13.9032 22.0076C13.5032 22.0076 13.1304 21.8974 12.8091 21.7078V21.9786H11.3396V16.0157H12.8091V17.9866C13.1304 17.7976 13.5032 17.6868 13.9032 17.6868C15.0974 17.6868 16.0642 18.6536 16.0642 19.8472C16.0642 21.0408 15.0974 22.0076 13.9032 22.0076ZM18.4836 18.0319V22.0076H17.0727V18.0319C17.0727 17.1684 16.5253 17.1684 16.5253 17.1684V16.0157C17.8172 15.9968 18.2568 16.8534 18.4067 17.4562C18.4791 17.7491 18.4836 17.9815 18.4836 18.0243V18.0319ZM21.6826 22.1846C20.4216 22.1846 19.3994 21.163 19.3994 19.9026C19.3994 18.6423 20.4216 17.6206 21.6826 17.6206C22.9424 17.6206 23.9646 18.6423 23.9646 19.9026C23.9646 21.163 22.9424 22.1846 21.6826 22.1846ZM26.6094 24.0616V22.9102C26.6094 22.9102 27.8893 23.0595 27.8893 22.3345V21.7229C27.5762 21.9069 27.2122 22.0146 26.823 22.0146C25.6577 22.0146 24.711 21.0685 24.711 19.9026C24.711 18.7367 25.6577 17.7913 26.823 17.7913C27.2122 17.7913 27.5762 17.8984 27.8893 18.0823V17.8978H29.2548V22.3345C29.2548 22.3345 29.5528 24.0616 26.6094 24.0616Z" fill="white"/>
    <path d="M13.7462 18.9683C13.2605 18.9683 12.8662 19.3613 12.8662 19.8469C12.8662 20.3319 13.2605 20.7256 13.7462 20.7256C14.2311 20.7256 14.6242 20.3319 14.6242 19.8469C14.6242 19.3613 14.2311 18.9683 13.7462 18.9683Z" fill="white"/>
</svg>