<svg width="20" height="20" viewBox="0 0 20 20" fill="none" xmlns="http://www.w3.org/2000/svg">
<path d="M14.5927 5.4073C13.7071 2.28988 10.8345 0 7.43715 0C3.33629 0 0 3.33629 0 7.43715C0 10.8345 2.28988 13.7072 5.4073 14.5927C6.29285 17.7101 9.16547 20 12.5629 20C13.7442 20 14.8741 19.7309 15.9213 19.2001C16.3061 19.005 16.46 18.5349 16.2649 18.15C16.0698 17.7652 15.5998 17.6113 15.2148 17.8064C14.3887 18.2252 13.4965 18.4375 12.5629 18.4375C10.1418 18.4375 8.05809 16.9653 7.15992 14.8691C7.25191 14.8725 7.3443 14.8743 7.43711 14.8743C11.5379 14.8743 14.8742 11.538 14.8742 7.43715C14.8742 7.34434 14.8725 7.25195 14.8691 7.15996C16.9653 8.05812 18.4375 10.1418 18.4375 12.5629C18.4375 13.5615 18.1827 14.5475 17.7004 15.4143C17.4907 15.7913 17.6263 16.267 18.0033 16.4768C18.3804 16.6866 18.8561 16.5509 19.0659 16.1739C19.677 15.0754 20 13.8268 20 12.5629C20 9.16547 17.7101 6.29285 14.5927 5.4073ZM1.5625 7.43715C1.5625 4.19785 4.19785 1.5625 7.43715 1.5625C9.8582 1.5625 11.9419 3.03469 12.8401 5.13086C12.7481 5.12746 12.6557 5.12574 12.5629 5.12574C8.46207 5.12574 5.12578 8.46203 5.12578 12.5629C5.12578 12.6557 5.1275 12.748 5.1309 12.84C3.03469 11.9419 1.5625 9.8582 1.5625 7.43715ZM6.73051 13.2695C6.70262 13.0378 6.68824 12.802 6.68824 12.5629C6.68824 11.8907 6.80172 11.2445 7.01055 10.6425L9.35754 12.9895C8.75551 13.1983 8.10934 13.3118 7.43715 13.3118C7.19805 13.3118 6.96223 13.2974 6.73051 13.2695ZM10.8172 12.2395L7.76051 9.18277C8.14973 8.63141 8.63137 8.14977 9.18273 7.76055L12.2395 10.8172C11.8502 11.3686 11.3686 11.8502 10.8172 12.2395ZM13.3118 7.43715C13.3118 8.10934 13.1983 8.75551 12.9895 9.35754L10.6425 7.01055C11.2445 6.80172 11.8907 6.68824 12.5629 6.68824C12.802 6.68824 13.0378 6.70262 13.2695 6.73051C13.2974 6.96223 13.3118 7.19805 13.3118 7.43715Z" fill="black"/>
</svg>
