<svg width="20" height="20" viewBox="0 0 20 20" fill="none" xmlns="http://www.w3.org/2000/svg">
<path d="M9.33335 12.6667H11.6667C11.9319 12.6667 12.1863 12.5614 12.3738 12.3739C12.5613 12.1863 12.6667 11.932 12.6667 11.6667V9.33341H18V18.0001H9.33335V12.6667ZM0.666687 11.6667V1.00008C0.666687 0.911676 0.701806 0.826891 0.764318 0.764379C0.82683 0.701867 0.911615 0.666748 1.00002 0.666748H11.6667C11.7551 0.666748 11.8399 0.701867 11.9024 0.764379C11.9649 0.826891 12 0.911676 12 1.00008V11.6667C12 11.7552 11.9649 11.8399 11.9024 11.9025C11.8399 11.965 11.7551 12.0001 11.6667 12.0001H1.00002C0.911615 12.0001 0.82683 11.965 0.764318 11.9025C0.701806 11.8399 0.666687 11.7552 0.666687 11.6667ZM19.3334 19.0001C19.3334 19.0885 19.2982 19.1733 19.2357 19.2358C19.1732 19.2983 19.0884 19.3334 19 19.3334H8.33335C8.24495 19.3334 8.16016 19.2983 8.09765 19.2358C8.03514 19.1733 8.00002 19.0885 8.00002 19.0001V12.6667H8.66669V18.0001C8.66669 18.1769 8.73693 18.3465 8.86195 18.4715C8.98697 18.5965 9.15654 18.6667 9.33335 18.6667H18C18.1768 18.6667 18.3464 18.5965 18.4714 18.4715C18.5965 18.3465 18.6667 18.1769 18.6667 18.0001V9.33341C18.6667 9.1566 18.5965 8.98703 18.4714 8.86201C18.3464 8.73699 18.1768 8.66675 18 8.66675H12.6667V8.00008H19C19.0884 8.00008 19.1732 8.0352 19.2357 8.09771C19.2982 8.16022 19.3334 8.24501 19.3334 8.33341V19.0001Z" fill="#0C0C0C"/>
<path d="M14.3333 1.33341C15.2799 1.33456 16.1893 1.7017 16.8713 2.35801C17.5533 3.01433 17.9552 3.90896 17.9927 4.85475L17.9023 4.76441C17.8395 4.7037 17.7553 4.6701 17.6679 4.67086C17.5805 4.67162 17.4969 4.70667 17.4351 4.76848C17.3733 4.83028 17.3382 4.91388 17.3374 5.00128C17.3367 5.08868 17.3703 5.17288 17.431 5.23575L18.0977 5.90242C18.1602 5.96491 18.2449 6.00001 18.3333 6.00001C18.4217 6.00001 18.5065 5.96491 18.569 5.90242L19.2357 5.23575C19.2964 5.17288 19.33 5.08868 19.3292 5.00128C19.3285 4.91388 19.2934 4.83028 19.2316 4.76848C19.1698 4.70667 19.0862 4.67162 18.9988 4.67086C18.9114 4.6701 18.8272 4.7037 18.7643 4.76441L18.66 4.86875C18.6253 3.74374 18.1545 2.67631 17.347 1.89215C16.5396 1.10799 15.4589 0.668549 14.3333 0.666748C14.2449 0.666748 14.1601 0.701867 14.0976 0.764379C14.0351 0.826891 14 0.911676 14 1.00008C14 1.08849 14.0351 1.17327 14.0976 1.23578C14.1601 1.2983 14.2449 1.33341 14.3333 1.33341Z" fill="#0C0C0C"/>
<path d="M5.66668 18.6668C4.72015 18.6657 3.81074 18.2986 3.1287 17.6422C2.44667 16.9859 2.04486 16.0913 2.00735 15.1455L2.09768 15.2358C2.12843 15.2677 2.16521 15.2931 2.20588 15.3105C2.24655 15.328 2.29029 15.3372 2.33455 15.3376C2.37881 15.338 2.4227 15.3295 2.46367 15.3128C2.50463 15.296 2.54185 15.2713 2.57315 15.24C2.60444 15.2087 2.62919 15.1715 2.64595 15.1305C2.66271 15.0895 2.67115 15.0456 2.67076 15.0014C2.67038 14.9571 2.66118 14.9134 2.64371 14.8727C2.62624 14.832 2.60085 14.7953 2.56901 14.7645L1.90235 14.0978C1.83984 14.0353 1.75507 14.0002 1.66668 14.0002C1.57829 14.0002 1.49352 14.0353 1.43101 14.0978L0.764347 14.7645C0.703628 14.8274 0.670029 14.9116 0.670789 14.999C0.671548 15.0864 0.706605 15.17 0.768407 15.2318C0.83021 15.2936 0.913814 15.3286 1.00121 15.3294C1.08861 15.3302 1.17281 15.2966 1.23568 15.2358L1.34001 15.1315C1.37471 16.2565 1.84555 17.3239 2.65298 18.1081C3.4604 18.8923 4.54114 19.3317 5.66668 19.3335C5.75509 19.3335 5.83987 19.2984 5.90238 19.2359C5.9649 19.1734 6.00001 19.0886 6.00001 19.0002C6.00001 18.9118 5.9649 18.827 5.90238 18.7645C5.83987 18.702 5.75509 18.6668 5.66668 18.6668Z" fill="#0C0C0C"/>
</svg>
