<svg width="17" height="16" viewBox="0 0 17 16" fill="none" xmlns="http://www.w3.org/2000/svg">
<path d="M2.5 5.2C2.5 4.07989 2.5 3.51984 2.71799 3.09202C2.90973 2.71569 3.21569 2.40973 3.59202 2.21799C4.01984 2 4.5799 2 5.7 2H11.3C12.4201 2 12.9802 2 13.408 2.21799C13.7843 2.40973 14.0903 2.71569 14.282 3.09202C14.5 3.51984 14.5 4.0799 14.5 5.2V9C14.5 9.93188 14.5 10.3978 14.3478 10.7654C14.1448 11.2554 13.7554 11.6448 13.2654 11.8478C12.8978 12 12.4319 12 11.5 12C11.1743 12 11.0114 12 10.8603 12.0357C10.6589 12.0832 10.4713 12.177 10.3123 12.3097C10.1931 12.4091 10.0954 12.5394 9.9 12.8L8.92667 14.0978C8.78192 14.2908 8.70955 14.3873 8.62082 14.4218C8.54311 14.452 8.45689 14.452 8.37918 14.4218C8.29045 14.3873 8.21808 14.2908 8.07333 14.0978L7.1 12.8C6.90457 12.5394 6.80685 12.4091 6.68766 12.3097C6.52874 12.177 6.34113 12.0832 6.13967 12.0357C5.98858 12 5.82572 12 5.5 12C4.56812 12 4.10218 12 3.73463 11.8478C3.24458 11.6448 2.85523 11.2554 2.65224 10.7654C2.5 10.3978 2.5 9.93188 2.5 9V5.2Z" stroke="#777777" stroke-linecap="round" stroke-linejoin="round"/>
</svg>
