<svg width="40" height="40" viewBox="0 0 40 40" fill="none" xmlns="http://www.w3.org/2000/svg">
<path d="M9 8V11V13L7.5 13.5V15L8 15.5L9 16C9 17.6 10.3333 19 11 19.5L10.5 22C10.5 22.1667 9.7 22.7 6.5 23.5C3.3 24.3 2.5 26.1667 2.5 27V35.5H19.5V23.5L19 23L16.5 22.5V19.5L17.5 18L18.5 16H19L20 15V14L19.5 13.5H18.5V10C18.5 6.5 16 4.5 13.5 4.5C11.5 4.5 9.66667 6.83333 9 8Z" fill="#FEFEFE"/>
<path d="M20.6344 35.2558H14.0576V25.2596L15.6506 26.6116C15.7204 26.6707 15.8092 26.7013 15.8998 26.6974C15.9905 26.6935 16.0765 26.6554 16.1411 26.5905L19.2731 23.4459L20.528 23.835C20.6207 23.8638 20.7209 23.8539 20.8064 23.8074C20.892 23.761 20.9559 23.6818 20.9841 23.5874C21.0124 23.4929 21.0026 23.3909 20.957 23.3038C20.9114 23.2167 20.8337 23.1516 20.741 23.1228L16.9806 21.9568V19.5196C17.9408 18.6971 18.5703 17.5437 18.7491 16.2791H18.8075C19.195 16.2787 19.5665 16.1217 19.8405 15.8427C20.1145 15.5636 20.2686 15.1853 20.2691 14.7907V14.0465C20.2687 13.7506 20.1531 13.4668 19.9476 13.2575C19.7422 13.0483 19.4635 12.9306 19.1729 12.9302H18.8075V9.2093C18.8075 7.82771 18.2686 6.5027 17.3093 5.52577C16.35 4.54884 15.0489 4 13.6922 4C12.3355 4 11.0344 4.54884 10.0751 5.52577C9.11581 6.5027 8.57688 7.82771 8.57688 9.2093V12.9302H8.2115C7.92088 12.9306 7.64226 13.0483 7.43676 13.2575C7.23126 13.4668 7.11567 13.7506 7.11536 14.0465V14.7907C7.11576 15.1853 7.26987 15.5636 7.54387 15.8427C7.81787 16.1217 8.18938 16.2787 8.57688 16.2791H8.63534C8.81419 17.5437 9.44365 18.697 10.4038 19.5194V21.9566L5.1088 23.5992C4.20764 23.8744 3.41802 24.4389 2.85775 25.2085C2.29748 25.9782 1.99661 26.9117 2.00003 27.8698V35.6279C2.00003 35.7266 2.03852 35.8212 2.10705 35.891C2.17557 35.9608 2.2685 36 2.36541 36H20.6344C20.7313 36 20.8243 35.9608 20.8928 35.891C20.9613 35.8212 20.9998 35.7266 20.9998 35.6279C20.9998 35.5292 20.9613 35.4346 20.8928 35.3648C20.8243 35.295 20.7313 35.2558 20.6344 35.2558ZM18.4779 23.1993L15.864 25.8238L14.2811 24.4805L16.6859 22.6438L18.4779 23.1993ZM19.1729 13.6744C19.2698 13.6745 19.3627 13.7137 19.4312 13.7835C19.4997 13.8533 19.5382 13.9479 19.5383 14.0465V14.7907C19.5381 14.988 19.461 15.1772 19.324 15.3167C19.187 15.4562 19.0013 15.5347 18.8075 15.5349V13.6744H19.1729ZM13.6922 4.74419C14.8547 4.74551 15.9691 5.21636 16.7911 6.05345C17.6131 6.89053 18.0755 8.02549 18.0768 9.2093V10.0564L17.9692 9.99382C16.6666 9.23588 15.1924 8.83721 13.6922 8.83721C12.192 8.83721 10.7178 9.23588 9.41521 9.99382L9.30764 10.0564V9.2093C9.30893 8.02549 9.77129 6.89053 10.5933 6.05345C11.4153 5.21636 12.5297 4.74551 13.6922 4.74419ZM17.8901 10.8049L16.8841 12.0856C15.8942 11.5772 14.8009 11.3123 13.6922 11.3123C12.5835 11.3123 11.4903 11.5772 10.5003 12.0856L9.49431 10.8051L9.77774 10.6401C10.9699 9.94643 12.3192 9.58158 13.6922 9.58158C15.0652 9.58158 16.4145 9.94643 17.6067 10.6401L17.8901 10.8049ZM7.84612 14.7907V14.0465C7.8462 13.9479 7.88473 13.8533 7.95323 13.7835C8.02173 13.7137 8.11462 13.6745 8.2115 13.6744H8.57688V15.5349C8.38314 15.5347 8.19739 15.4562 8.0604 15.3167C7.9234 15.1772 7.84634 14.988 7.84612 14.7907ZM9.30764 15.5349V11.7585L10.1185 12.7907C10.1724 12.8593 10.2485 12.9063 10.3332 12.9233C10.418 12.9402 10.5058 12.9261 10.5813 12.8833C11.5318 12.3415 12.6029 12.0571 13.6922 12.0571C14.7815 12.0571 15.8526 12.3415 16.8031 12.8833C16.8786 12.9261 16.9665 12.9402 17.0512 12.9233C17.1359 12.9063 17.212 12.8593 17.2659 12.7907L18.0768 11.7585V15.5349C18.0768 16.7191 17.6148 17.8548 16.7926 18.6922C15.9703 19.5296 14.8551 20 13.6922 20C12.5293 20 11.4141 19.5296 10.5918 18.6922C9.76958 17.8548 9.30764 16.7191 9.30764 15.5349ZM13.6922 20.7442C14.591 20.7439 15.4736 20.5007 16.2499 20.0394V22.0465L13.6922 24L11.1345 22.0465V20.0394C11.9108 20.5007 12.7934 20.7439 13.6922 20.7442ZM10.6985 22.6436L13.1033 24.4804L11.5205 25.8236L8.90663 23.1993L10.6985 22.6436ZM2.73079 27.8698C2.72787 27.0713 2.97863 26.2934 3.44561 25.652C3.91259 25.0107 4.57075 24.5403 5.32181 24.3113L8.11149 23.446L11.2434 26.5901C11.308 26.655 11.3939 26.6931 11.4846 26.697C11.5752 26.7009 11.6641 26.6704 11.7338 26.6112L13.3268 25.2596V35.2558H6.38459V30.4186C6.38459 30.3199 6.3461 30.2253 6.27758 30.1555C6.20905 30.0857 6.11612 30.0465 6.01921 30.0465C5.92231 30.0465 5.82937 30.0857 5.76085 30.1555C5.69233 30.2253 5.65383 30.3199 5.65383 30.4186V35.2558H2.73079V27.8698Z" fill="#232527"/>
<path d="M11.3333 15C11.4217 15 11.5065 14.9473 11.569 14.8536C11.6315 14.7598 11.6667 14.6326 11.6667 14.5C11.6667 14.3674 11.7018 14.2402 11.7643 14.1464C11.8268 14.0527 11.9116 14 12 14C12.0884 14 12.1732 14.0527 12.2357 14.1464C12.2982 14.2402 12.3333 14.3674 12.3333 14.5C12.3333 14.6326 12.3685 14.7598 12.431 14.8536C12.4935 14.9473 12.5783 15 12.6667 15C12.7551 15 12.8399 14.9473 12.9024 14.8536C12.9649 14.7598 13 14.6326 13 14.5C13 14.1022 12.8946 13.7206 12.7071 13.4393C12.5196 13.158 12.2652 13 12 13C11.7348 13 11.4804 13.158 11.2929 13.4393C11.1054 13.7206 11 14.1022 11 14.5C11 14.6326 11.0351 14.7598 11.0976 14.8536C11.1601 14.9473 11.2449 15 11.3333 15Z" fill="#232527"/>
<path d="M15.3333 15C15.4217 15 15.5065 14.9473 15.569 14.8536C15.6315 14.7598 15.6667 14.6326 15.6667 14.5C15.6667 14.3674 15.7018 14.2402 15.7643 14.1464C15.8268 14.0527 15.9116 14 16 14C16.0884 14 16.1732 14.0527 16.2357 14.1464C16.2982 14.2402 16.3333 14.3674 16.3333 14.5C16.3333 14.6326 16.3685 14.7598 16.431 14.8536C16.4935 14.9473 16.5783 15 16.6667 15C16.7551 15 16.8399 14.9473 16.9024 14.8536C16.9649 14.7598 17 14.6326 17 14.5C17 14.1022 16.8946 13.7206 16.7071 13.4393C16.5196 13.158 16.2652 13 16 13C15.7348 13 15.4804 13.158 15.2929 13.4393C15.1054 13.7206 15 14.1022 15 14.5C15 14.6326 15.0351 14.7598 15.0976 14.8536C15.1601 14.9473 15.2449 15 15.3333 15Z" fill="#232527"/>
<path d="M12.7773 16.2642L12.6796 16.1408C12.6039 16.0494 12.5026 15.9989 12.3975 16C12.2924 16.0012 12.1918 16.0539 12.1174 16.1469C12.0431 16.2399 12.0009 16.3657 12 16.4972C11.9991 16.6287 12.0395 16.7554 12.1126 16.85L12.2053 16.9675C12.4273 17.2914 12.7026 17.5514 13.0124 17.7296C13.3222 17.9078 13.6592 18 14.0002 18C14.3412 18 14.6782 17.9076 14.988 17.7293C15.2977 17.551 15.573 17.291 15.7949 16.967L15.8874 16.85C15.9605 16.7554 16.0009 16.6287 16 16.4972C15.9991 16.3657 15.9569 16.2399 15.8826 16.1469C15.8082 16.0539 15.7076 16.0012 15.6025 16C15.4974 15.9989 15.3961 16.0494 15.3204 16.1408L15.2229 16.2637C15.0759 16.4925 14.8898 16.6772 14.6782 16.8041C14.4665 16.931 14.2349 16.9969 14.0002 16.9969C13.7655 16.997 13.5338 16.9312 13.3222 16.8044C13.1105 16.6776 12.9243 16.493 12.7773 16.2642Z" fill="#232527"/>
<rect x="19.5" y="22.5" width="17" height="15" rx="1.5" fill="#FEFEFE" stroke="#232527"/>
<path d="M23 22.5H22.5V23V27C22.5 27.8284 23.1716 28.5 24 28.5C24.8284 28.5 25.5 27.8284 25.5 27V23V22.5H25H23Z" stroke="#232527"/>
</svg>
