<svg width="40" height="40" viewBox="0 0 40 40" fill="none" xmlns="http://www.w3.org/2000/svg">
<g clip-path="url(#clip0_2241_5903)">
<path d="M6 40L0.5 33.5L5 29.5H14L15.5 30.5V31.5L14.5 33H20.5L23 31L25 30.5L26 31L27 32.5L26.5 33.5L22 37.5H8.5L6 40Z" fill="#FEFEFE"/>
<path d="M22.7752 30.6013L20.447 32.5H15.9145C16.1283 32.1319 16.2502 31.705 16.2502 31.25C16.2502 29.8713 15.1289 28.75 13.7502 28.75H5.89953C5.06453 28.75 4.28016 29.0756 3.69016 29.6656L0.183281 33.1719C-0.0610938 33.4163 -0.0610938 33.8112 0.183281 34.0556C0.427656 34.3 0.822656 34.3 1.06703 34.0556L4.57391 30.5494C4.92766 30.195 5.39891 30 5.89953 30H13.7502C14.4395 30 15.0002 30.5606 15.0002 31.25C15.0002 31.9394 14.4395 32.5 13.7502 32.5H10.0002C9.65516 32.5 9.37516 32.78 9.37516 33.125C9.37516 33.47 9.65516 33.75 10.0002 33.75H20.6695C20.8133 33.75 20.9533 33.7 21.0645 33.6094L23.5883 31.5512C23.6045 31.5381 23.6202 31.5238 23.6352 31.5088C24.2308 30.9138 25.1827 30.8512 25.7577 31.3687C26.0645 31.645 26.2395 32.0231 26.2502 32.4338C26.2608 32.8444 26.107 33.2306 25.8352 33.5031L22.7108 36.38C22.3633 36.6988 21.912 36.875 21.4402 36.875H8.35578C8.20266 36.875 8.05453 36.9312 7.94016 37.0331L5.83453 38.9081C5.57641 39.1381 5.55391 39.5331 5.78328 39.7906C5.90703 39.9294 6.07828 40 6.25016 40C6.39766 40 6.54641 39.9481 6.66578 39.8419L8.59391 38.125H21.4402C22.2264 38.125 22.9783 37.8319 23.557 37.2994L26.7002 34.4044C27.2277 33.8769 27.5189 33.1463 27.4995 32.4006C27.4795 31.6444 27.1583 30.9475 26.5939 30.4394C25.5233 29.475 23.8514 29.5481 22.7752 30.6013Z" fill="#232527"/>
<path d="M6.5 7C6.5 6.17157 7.17157 5.5 8 5.5H34C34.8284 5.5 35.5 6.17157 35.5 7V25C35.5 25.8284 34.8284 26.5 34 26.5H8C7.17157 26.5 6.5 25.8284 6.5 25V7Z" fill="#FEFEFE" stroke="#232527"/>
<path d="M12 5.5H11.5V6V11.875C11.5 12.7034 12.1716 13.375 13 13.375H14.3333C15.1618 13.375 15.8333 12.7034 15.8333 11.875V6V5.5H15.3333H12Z" stroke="#232527"/>
<circle cx="34" cy="6" r="5" fill="#FEFEFE"/>
<path d="M34.375 0C31.2738 0 28.75 2.52375 28.75 5.625C28.75 8.72625 31.2738 11.25 34.375 11.25C37.4763 11.25 40 8.72625 40 5.625C40 2.52375 37.4763 0 34.375 0ZM34.375 10C31.9625 10 30 8.0375 30 5.625C30 3.2125 31.9625 1.25 34.375 1.25C36.7875 1.25 38.75 3.2125 38.75 5.625C38.75 8.0375 36.7875 10 34.375 10Z" fill="#232527"/>
<path d="M35.8083 3.93304L33.7502 5.99116L32.942 5.18304C32.6977 4.93866 32.3027 4.93866 32.0583 5.18304C31.8139 5.42741 31.8139 5.82241 32.0583 6.06679L33.3083 7.31679C33.4302 7.43866 33.5902 7.49991 33.7502 7.49991C33.9102 7.49991 34.0702 7.43866 34.192 7.31679L36.692 4.81679C36.9364 4.57241 36.9364 4.17741 36.692 3.93304C36.4477 3.68866 36.0527 3.68866 35.8083 3.93304Z" fill="#232527"/>
<path d="M0.5 33.5L6.5 40" stroke="#232527"/>
</g>
<defs>
<clipPath id="clip0_2241_5903">
<rect width="40" height="40" fill="white"/>
</clipPath>
</defs>
</svg>
