<svg xmlns="http://www.w3.org/2000/svg" width="41" height="40" viewBox="0 0 41 40" fill="none">
    <path d="M40.5 20C40.5 31.0452 31.5459 39.9993 20.5 39.9993C9.45475 39.9993 0.5 31.0452 0.5 20C0.5 8.95346 9.45475 0 20.5 0C31.5459 0 40.5 8.95346 40.5 20Z" fill="#3B599A"/>
    <path d="M24.891 8.86475V12.3756H22.9806C22.4125 12.3756 22.0516 12.5305 21.8702 12.8405C21.7417 13.047 21.69 13.408 21.69 13.8986V15.4991H24.9427L24.5559 19.0364H21.69V29.2339H17.4819V19.0364H15.416V15.4991H17.4819V13.3828C17.4819 11.2141 18.2308 9.81964 19.7016 9.22632C20.4247 8.94221 21.0444 8.86475 21.69 8.86475H24.891Z" fill="#F7F8F8"/>
</svg>