<svg xmlns="http://www.w3.org/2000/svg" width="16" height="16" viewBox="0 0 16 16" fill="none">
    <path d="M14.3341 11.9979L9.90551 7.99788M6.09594 7.99788L1.66734 11.9979M1.33398 4.66455L6.77732 8.47484C7.21811 8.78339 7.4385 8.93767 7.67823 8.99742C7.88999 9.0502 8.11146 9.0502 8.32322 8.99742C8.56295 8.93767 8.78334 8.78339 9.22412 8.47485L14.6675 4.66455M4.53402 13.3312H11.4674C12.5875 13.3312 13.1476 13.3312 13.5754 13.1132C13.9518 12.9215 14.2577 12.6155 14.4495 12.2392C14.6675 11.8114 14.6675 11.2513 14.6675 10.1312V5.86455C14.6675 4.74445 14.6675 4.18439 14.4495 3.75657C14.2577 3.38025 13.9518 3.07428 13.5754 2.88254C13.1476 2.66455 12.5875 2.66455 11.4674 2.66455H4.53402C3.4139 2.66455 2.85384 2.66455 2.42602 2.88254C2.04969 3.07428 1.74372 3.38025 1.55197 3.75657C1.33398 4.18439 1.33398 4.74445 1.33398 5.86455V10.1312C1.33398 11.2513 1.33398 11.8114 1.55197 12.2392C1.74372 12.6155 2.04969 12.9215 2.42602 13.1132C2.85384 13.3312 3.4139 13.3312 4.53402 13.3312Z" stroke="black" stroke-linecap="round" stroke-linejoin="round"/>
</svg>