<svg xmlns="http://www.w3.org/2000/svg" width="49" height="50" viewBox="0 0 49 50" fill="none">
    <path d="M48.5 25C48.5 11.7452 37.7548 1 24.5 1C11.2452 1 0.5 11.7452 0.5 25C0.5 38.2548 11.2452 49 24.5 49C37.7548 49 48.5 38.2548 48.5 25Z" fill="white" stroke="#D6D6D6" stroke-width="0.75" stroke-miterlimit="10"/>
    <path fill-rule="evenodd" clip-rule="evenodd" d="M34.0971 25.2272C34.0971 24.5151 34.0352 23.834 33.9113 23.1838H24.4893V27.0538H29.8763C29.6492 28.3025 28.9371 29.3655 27.8845 30.0672V32.575H31.1146C33.0032 30.8309 34.0971 28.2716 34.0971 25.2272Z" fill="#4285F4"/>
    <path fill-rule="evenodd" clip-rule="evenodd" d="M24.5005 34.9999C27.2043 34.9999 29.4644 34.1021 31.1156 32.5747L27.8855 30.067C26.9876 30.6655 25.8421 31.0164 24.5005 31.0164C21.8999 31.0164 19.6914 29.262 18.9071 26.8884H15.5635V29.4787C17.2043 32.7501 20.5893 34.9896 24.5005 34.9896V34.9999Z" fill="#34A853"/>
    <path fill-rule="evenodd" clip-rule="evenodd" d="M18.9066 26.8988C18.7105 26.3002 18.597 25.6604 18.597 24.9999C18.597 24.3394 18.7105 23.6996 18.9066 23.101V20.5107H15.563C14.8818 21.8627 14.5 23.39 14.5 24.9999C14.5 26.6098 14.8818 28.1372 15.563 29.4891L18.9066 26.8988Z" fill="#FBBC05"/>
    <path fill-rule="evenodd" clip-rule="evenodd" d="M24.5005 18.9732C25.966 18.9732 27.2869 19.4788 28.3189 20.4696L31.1878 17.6006C29.4541 15.9907 27.194 15 24.5005 15C20.5893 15 17.2043 17.2394 15.5635 20.5108L18.9071 23.1011C19.6914 20.7379 21.8999 18.9732 24.5005 18.9732Z" fill="#EA4335"/>
</svg>