<svg width="72" height="72" viewBox="0 0 72 72" fill="none" xmlns="http://www.w3.org/2000/svg">
<path d="M27.25 37.45C27.25 33.5296 27.25 31.5694 28.013 30.0721C28.6841 28.7549 29.7549 27.6841 31.0721 27.013C32.5694 26.25 34.5296 26.25 38.45 26.25H47.5499C51.4703 26.25 53.4306 26.25 54.9279 27.013C56.2451 27.6841 57.316 28.7549 57.987 30.0721C58.75 31.5694 58.75 33.5296 58.75 37.45V46.5499C58.75 50.4703 58.75 52.4306 57.987 53.9279C57.316 55.2451 56.2451 56.316 54.9279 56.987C53.4306 57.75 51.4703 57.75 47.5499 57.75H38.45C34.5296 57.75 32.5694 57.75 31.0721 56.987C29.7549 56.316 28.6841 55.2451 28.013 53.9279C27.25 52.4306 27.25 50.4703 27.25 46.5499V37.45Z" fill="#5BB9E2"/>
<path d="M30.625 50.5049C30.625 51.3999 31.3562 52.1249 32.2572 52.1249H32.2806C31.3659 52.1249 30.625 51.3999 30.625 50.5049Z" fill="#FBBC05"/>
<path d="M44.6512 37.95V42.1795L50.3534 37.5801V33.495C50.3534 32.6 49.6221 31.875 48.7212 31.875H36.3675L36.3564 37.95H44.6512Z" fill="#FBBC05"/>
<path d="M44.6502 46.4112H36.3417L36.332 52.1257H48.7203C49.6226 52.1257 50.3525 51.4008 50.3525 50.5057V46.8175L44.6502 42.1816V46.4112Z" fill="#34A853"/>
<path d="M36.3672 31.875L30.625 37.95H36.3576L36.3672 31.875Z" fill="#EA4335"/>
<path d="M30.625 46.4102V50.5047C30.625 51.3998 31.3659 52.1247 32.2806 52.1247H36.3328L36.3424 46.4102H30.625Z" fill="#1967D2"/>
<path d="M36.3576 37.9502H30.625V46.4106H36.3424L36.3576 37.9502Z" fill="#4285F4"/>
<path d="M55.3669 49.0648V35.1599C55.0454 33.3145 53.0214 35.4299 53.0214 35.4299L50.3545 37.5805V46.8157L54.1721 49.9193C55.5504 50.1002 55.3669 49.0648 55.3669 49.0648Z" fill="#34A853"/>
<path d="M44.6514 42.179L50.355 46.8163V37.5811L44.6514 42.179Z" fill="#188038"/>
</svg>
