<svg width="72" height="72" viewBox="0 0 72 72" fill="none" xmlns="http://www.w3.org/2000/svg">
<path fill-rule="evenodd" clip-rule="evenodd" d="M45.3333 23.6667V50.3333H18.6667V23.6667H45.3333ZM29.8906 30.3333H27.2935L22.3629 43.6667H24.7059L25.6368 41.0601H31.5391L32.45 43.6667H34.9341L29.8906 30.3333ZM39.0931 30.3333H36.7595V43.6667H39.0931V30.3333ZM28.5724 32.5703L30.8968 39.2222H26.2849L28.5724 32.5703ZM47.5556 43.6667H52V48.1111H47.5556V43.6667ZM20.8889 52.5556H25.3333V57H20.8889V52.5556ZM29.7778 52.5556H34.2222V57H29.7778V52.5556ZM20.8889 17H25.3333V21.4444H20.8889V17ZM38.6667 52.5556H43.1111V57H38.6667V52.5556ZM29.7778 17H34.2222V21.4444H29.7778V17ZM38.6667 17H43.1111V21.4444H38.6667V17ZM47.5556 34.7778H52V39.2222H47.5556V34.7778ZM12 43.6667H16.4444V48.1111H12V43.6667ZM47.5556 25.8889H52V30.3333H47.5556V25.8889ZM12 34.7778H16.4444V39.2222H12V34.7778ZM12 25.8889H16.4444V30.3333H12V25.8889Z" fill="#5BB9E2"/>
<path fill-rule="evenodd" clip-rule="evenodd" d="M47.125 43.2408C47.125 47.5823 43.6019 51.1065 39.25 51.1065C34.8981 51.1065 31.375 47.5823 31.375 43.2408C31.375 38.8992 34.8981 35.375 39.25 35.375C43.6019 35.375 47.125 38.8992 47.125 43.2408ZM45.4584 52.6163C43.6791 53.795 41.5448 54.4815 39.25 54.4815C33.0368 54.4815 28 49.4489 28 43.2408C28 37.0327 33.0368 32 39.25 32C45.4632 32 50.5 37.0327 50.5 43.2408C50.5 45.5451 49.806 47.6875 48.6156 49.4707L54.347 55.1974C55.2176 56.0673 55.2177 57.4777 54.347 58.3476C53.4764 59.2174 52.0649 59.2174 51.1943 58.3476L45.4584 52.6163Z" fill="#231916"/>
</svg>
