<svg width="72" height="72" viewBox="0 0 72 72" fill="none" xmlns="http://www.w3.org/2000/svg">
<path d="M49.9991 33.5827L46.1657 30.416V24.2493C46.1631 24.0896 46.1145 23.9339 46.0259 23.8009C45.9372 23.6679 45.8122 23.5633 45.6657 23.4993L37.4157 19.7493H37.0824L36.5824 19.916L31.9991 22.916L27.4157 19.8327L26.9157 19.666H26.5824L18.3324 23.4993C18.1859 23.5633 18.0609 23.6679 17.9723 23.8009C17.8836 23.9339 17.8351 24.0896 17.8324 24.2493V30.416L13.9991 33.5827C13.8834 33.648 13.7899 33.7463 13.7305 33.8651C13.6711 33.9839 13.6486 34.1177 13.6657 34.2493V41.7494C13.6486 41.881 13.6711 42.0148 13.7305 42.1336C13.7899 42.2524 13.8834 42.3507 13.9991 42.416L17.8324 45.5827V51.7494C17.8351 51.9091 17.8836 52.0648 17.9723 52.1978C18.0609 52.3308 18.1859 52.4354 18.3324 52.4994L26.5824 56.2494H26.9157L27.4157 56.0827L31.9991 53.0827L36.5824 56.166L37.0824 56.3327H37.4157L45.6657 52.5827C45.8122 52.5188 45.9372 52.4141 46.0259 52.2811C46.1145 52.1481 46.1631 51.9925 46.1657 51.8327V45.5827L49.9991 42.416C50.1013 42.357 50.186 42.2719 50.2446 42.1694C50.3032 42.0669 50.3335 41.9507 50.3324 41.8327V34.166C50.3335 34.048 50.3032 33.9318 50.2446 33.8293C50.186 33.7268 50.1013 33.6417 49.9991 33.5827ZM45.7491 39.2493H46.9991V40.5827L44.0824 42.916L43.7491 43.166L43.4157 42.9994C43.2705 42.9159 43.1089 42.8646 42.9421 42.8491C42.7753 42.8337 42.6071 42.8543 42.4489 42.9097C42.2908 42.965 42.1464 43.0538 42.0257 43.1699C41.9049 43.286 41.8106 43.4268 41.7491 43.5827C41.5996 43.871 41.5681 44.2062 41.6615 44.5173C41.7548 44.8284 41.9655 45.0909 42.2491 45.2494L42.8324 45.4994V49.9994L37.3324 52.5827L33.8324 50.2494L33.2491 49.8327V39.2493H34.4991C34.8306 39.2493 35.1485 39.1177 35.383 38.8832C35.6174 38.6488 35.7491 38.3309 35.7491 37.9993C35.7491 37.6678 35.6174 37.3499 35.383 37.1155C35.1485 36.881 34.8306 36.7493 34.4991 36.7493H33.2491V26.0827L33.8324 25.666L37.3324 23.3327L42.8324 25.916V30.416L42.2491 30.666C41.9655 30.8244 41.7548 31.087 41.6615 31.3981C41.5681 31.7092 41.5996 32.0444 41.7491 32.3327C41.833 32.5523 41.9814 32.7414 42.1747 32.8753C42.368 33.0091 42.5973 33.0814 42.8324 33.0827L43.4157 32.916L43.7491 32.7494L44.0824 32.9993L46.9991 35.416V36.7493H45.7491C45.4176 36.7493 45.0996 36.881 44.8652 37.1155C44.6308 37.3499 44.4991 37.6678 44.4991 37.9993C44.4991 38.3309 44.6308 38.6488 44.8652 38.8832C45.0996 39.1177 45.4176 39.2493 45.7491 39.2493ZM29.4991 39.2493H30.7491V49.916L30.1657 50.3327L26.6657 52.666L21.1657 50.0827V45.5827L21.7491 45.3327C22.0326 45.1743 22.2434 44.9117 22.3367 44.6006C22.43 44.2895 22.3986 43.9543 22.2491 43.666C22.1876 43.5102 22.0933 43.3694 21.9725 43.2532C21.8517 43.1371 21.7074 43.0483 21.5492 42.993C21.3911 42.9376 21.2229 42.917 21.056 42.9325C20.8892 42.948 20.7277 42.9992 20.5824 43.0827L20.2491 43.2493L19.9157 42.9994L16.9991 40.5827V39.2493H18.2491C18.5806 39.2493 18.8985 39.1177 19.133 38.8832C19.3674 38.6488 19.4991 38.3309 19.4991 37.9993C19.4991 37.6678 19.3674 37.3499 19.133 37.1155C18.8985 36.881 18.5806 36.7493 18.2491 36.7493H16.9991V35.416L19.9157 33.0827L20.2491 32.8327L20.5824 32.9993L21.1657 33.166C21.4009 33.1647 21.6301 33.0924 21.8234 32.9586C22.0167 32.8248 22.1651 32.6356 22.2491 32.416C22.3986 32.1277 22.43 31.7925 22.3367 31.4814C22.2434 31.1703 22.0326 30.9078 21.7491 30.7493L21.1657 30.4993V25.916L26.6657 23.3327L30.1657 25.666L30.7491 26.0827V36.7493H29.4991C29.1676 36.7493 28.8496 36.881 28.6152 37.1155C28.3808 37.3499 28.2491 37.6678 28.2491 37.9993C28.2491 38.3309 28.3808 38.6488 28.6152 38.8832C28.8496 39.1177 29.1676 39.2493 29.4991 39.2493Z" fill="#5BB9E2"/>
<path d="M23.5817 26.2482C23.379 26.5108 23.269 26.8332 23.269 27.1649C23.269 27.4966 23.379 27.819 23.5817 28.0816L25.7484 30.1649V32.4982L22.415 35.8316V40.1649L25.7484 43.4982V45.8316L23.5817 47.9149C23.379 48.1775 23.269 48.4998 23.269 48.8316C23.269 49.1633 23.379 49.4857 23.5817 49.7482C23.7044 49.8624 23.8487 49.9507 24.0062 50.008C24.1637 50.0653 24.331 50.0903 24.4984 50.0816C24.6657 50.0903 24.8331 50.0653 24.9906 50.008C25.148 49.9507 25.2924 49.8624 25.415 49.7482L28.2484 46.8316V42.4982L24.915 39.1649V36.8316L28.2484 33.4982V29.1649L25.415 26.2482C25.1525 26.0455 24.8301 25.9355 24.4984 25.9355C24.1666 25.9355 23.8443 26.0455 23.5817 26.2482Z" fill="#5BB9E2"/>
<path d="M38.249 30.1649L40.4157 28.0816C40.6184 27.819 40.7284 27.4966 40.7284 27.1649C40.7284 26.8332 40.6184 26.5108 40.4157 26.2482C40.1531 26.0455 39.8307 25.9355 39.499 25.9355C39.1673 25.9355 38.8449 26.0455 38.5824 26.2482L35.749 29.1649V33.4982L39.0824 36.8316V39.1649L35.749 42.4982V46.8316L38.5824 49.7482C38.8384 49.9655 39.1632 50.0848 39.499 50.0848C39.8348 50.0848 40.1597 49.9655 40.4157 49.7482C40.6184 49.4857 40.7284 49.1633 40.7284 48.8316C40.7284 48.4998 40.6184 48.1775 40.4157 47.9149L38.249 45.8316V43.4982L41.5824 40.1649V35.8316L38.249 32.4982V30.1649Z" fill="#5BB9E2"/>
<path fill-rule="evenodd" clip-rule="evenodd" d="M47.125 43.2408C47.125 47.5823 43.6019 51.1065 39.25 51.1065C34.8981 51.1065 31.375 47.5823 31.375 43.2408C31.375 38.8992 34.8981 35.375 39.25 35.375C43.6019 35.375 47.125 38.8992 47.125 43.2408ZM45.4584 52.6163C43.6791 53.795 41.5448 54.4815 39.25 54.4815C33.0368 54.4815 28 49.4489 28 43.2408C28 37.0327 33.0368 32 39.25 32C45.4632 32 50.5 37.0327 50.5 43.2408C50.5 45.5451 49.806 47.6875 48.6156 49.4707L54.347 55.1974C55.2176 56.0673 55.2177 57.4777 54.347 58.3476C53.4764 59.2174 52.0649 59.2174 51.1943 58.3476L45.4584 52.6163Z" fill="#231916"/>
</svg>
