<svg width="72" height="72" viewBox="0 0 72 72" fill="none" xmlns="http://www.w3.org/2000/svg">
<rect x="46.125" y="27" width="3.375" height="5.625" rx="1.125" fill="#FFA8B0"/>
<path fill-rule="evenodd" clip-rule="evenodd" d="M44.6692 45.2647H47.9999C48.5294 45.2647 48.9926 44.9074 49.1249 44.3912L50.8455 37.4426C51.0308 36.7015 50.4749 36 49.7205 36H22.5749C21.8205 36 21.2647 36.7147 21.4499 37.4426L23.1838 44.3912C23.3161 44.9074 23.7794 45.2647 24.3088 45.2647H27.5741L28.3588 56.3162C28.478 57.5735 29.4971 58.5 30.728 58.5H41.5147C42.7456 58.5 43.7647 57.5735 43.8838 56.3559L44.6692 45.2647Z" fill="#5BB9E2"/>
<path d="M36 25.875C37.864 25.875 39.375 24.364 39.375 22.5C39.375 20.636 37.864 19.125 36 19.125C34.136 19.125 32.625 20.636 32.625 22.5C32.625 24.364 34.136 25.875 36 25.875Z" fill="#231916"/>
<path d="M42.5315 34.875C43.3446 34.875 44.0111 34.1531 43.8511 33.3656C43.1313 29.7431 39.8922 27 36 27C32.1078 27 28.8687 29.7431 28.1489 33.3656C27.9889 34.1531 28.6554 34.875 29.4685 34.875H42.5315Z" fill="#231916"/>
<path d="M48.375 31.5H47.25V36H48.375V31.5Z" fill="#FFA8B0"/>
</svg>
