<svg width="140" height="80" viewBox="0 0 140 80" fill="none" xmlns="http://www.w3.org/2000/svg">
<path d="M36.0254 29.3035L28.2574 33.5498L28.9416 33.9103L25.5522 35.7622L17.7841 40.0085L16.6212 39.3959C16.6212 39.3959 15.7349 39.0073 15.0719 39.4834C14.4089 39.9595 15.2491 40.369 15.2491 40.369L16.3447 40.9432L12.4979 43.0471L11.9306 42.7495L10.3635 43.6072L10.8953 43.8872L10.2146 44.2583L9.04816 43.6457L1 48.053L6.08771 50.724L3.54208 52.1138L6.72235 53.7836C6.72235 53.7836 7.6548 56.4931 13.9019 57.5853C18.0323 58.3589 19.4576 57.8058 19.4576 57.8058L34.4761 65.6928C34.4761 65.6928 37.6812 67.3136 42.854 67.3626C48.0268 67.4151 51.1007 69.0289 52.182 69.533C53.2669 70.0371 63.2438 75.3406 63.2438 75.3406C63.2438 75.3406 66.9134 77.6161 75.1778 79.1949L75.3267 79.1143L74.997 78.9428L75.3905 78.7293L77.812 80L79.5458 79.0548L78.2446 78.3722C78.2446 78.3722 79.9712 77.7771 80.2194 77.7001C80.4676 77.6231 84.9632 78.8413 89.2745 76.4888C92.9724 74.3499 90.955 71.924 90.955 71.924L92.1534 70.7653L93.4936 71.4689L95.2592 70.5027L85.2646 65.2552L97 58.842L68.8669 44.0692L66.4808 45.375L36.0254 29.3035Z" fill="black" fill-opacity="0.1"/>
<path d="M36.0254 27L28.2574 31.2463L28.9416 31.6069L25.5522 33.4587L17.7841 37.705L16.6212 37.0924C16.6212 37.0924 15.7349 36.7038 15.0719 37.1799C14.4089 37.656 15.2491 38.0656 15.2491 38.0656L16.3447 38.6397L12.4979 40.7436L11.9306 40.446L10.3635 41.3037L10.8953 41.5837L10.2146 41.9548L9.04816 41.3422L1 45.746L6.08771 48.417L3.54208 49.8068L6.72235 51.4766C6.72235 51.4766 7.6548 54.1861 13.9019 55.2783C18.0323 56.052 19.4576 55.4989 19.4576 55.4989L34.4761 63.3858C34.4761 63.3858 37.6812 65.0066 42.854 65.0557C48.0268 65.1082 51.1007 66.722 52.182 67.2261C53.2669 67.7302 63.2438 73.0337 63.2438 73.0337C63.2438 73.0337 66.9134 75.3091 75.1778 76.8879L75.3267 76.8074L74.997 76.6358L75.3905 76.4223L77.812 77.693L79.5458 76.7479L78.2446 76.0652C78.2446 76.0652 79.9712 75.4701 80.2194 75.3931C80.4676 75.3161 84.9632 76.5343 89.2745 74.1819C92.9724 72.043 90.955 69.617 90.955 69.617L92.1534 68.4583L93.4936 69.1619L95.2592 68.1958L85.2646 62.9483L97 56.5351L68.8669 41.7623L66.4808 43.068L36.0254 27Z" fill="white" stroke="#B5B5B6" stroke-width="0.2" stroke-miterlimit="10"/>
<path d="M65.4594 43.7471L65.392 44.7938L40.8398 57.0076L40.8718 55.9749L65.4594 43.7471Z" fill="#8D526D"/>
<path d="M40.872 55.975L40.8401 57.0076L23.5312 47.8254L23.5419 46.7822L40.872 55.975Z" fill="#C37799"/>
<path d="M48.1261 34.5718L65.4598 43.747L40.8721 55.9748L23.542 46.7821L48.1261 34.5718Z" fill="#EF93BB"/>
<path d="M27.2289 39.1228L27.1651 40.173L19.2588 44.1497L19.2907 43.1171L27.2289 39.1228Z" fill="#8D526D"/>
<path d="M19.2905 43.117L19.2586 44.1497L14.958 41.8987L14.9686 40.8521L19.2905 43.117Z" fill="#C37799"/>
<path d="M22.6844 36.9209L27.2367 39.1298L19.2985 43.1206L14.9766 40.8591L22.6844 36.9209Z" fill="#EF93BB"/>
<path d="M50.1576 57.1406L50.1363 58.1908L44.6338 55.2817L44.648 54.228L50.1576 57.1406Z" fill="#CCC365"/>
<path d="M66.325 68.9904L66.2824 70.0266L46.9385 59.7697L46.9527 58.7195L66.325 68.9904Z" fill="#CCC365"/>
<path d="M80.425 61.9751L80.3647 63.0183L66.2822 70.0266L66.3248 68.9904L80.425 61.9751Z" fill="#A79F51"/>
<path d="M52.8349 50.1638L58.5288 53.1814L61.2553 51.8266L80.4255 61.975L66.3253 68.9904L46.953 58.7194L50.1581 57.1406L44.6484 54.2281L52.8349 50.1638Z" fill="#FFF67F"/>
<path d="M49.1224 63.8409L49.0905 64.8911L34.7988 62.9692L34.813 61.9155L49.1224 63.8409Z" fill="#B1AA57"/>
<path d="M67.5874 73.5939L67.5307 74.6301L49.0908 64.8913L49.1227 63.8411L67.5874 73.5939Z" fill="#CCC365"/>
<path d="M70.161 72.3125L70.1007 73.3522L67.5303 74.6299L67.587 73.5937L70.161 72.3125Z" fill="#A79F51"/>
<path d="M42.9032 57.9004L70.1606 72.3126L67.5866 73.5938L49.1219 63.841L34.8125 61.9156L42.9032 57.9004Z" fill="#FFF67F"/>
<path d="M92.4953 45.9966L93.8706 44.8173L95.4261 45.6283L97.2221 44.6828L87.1322 39.4168L99.0004 33.1804L70.4594 18.2819L68.1827 19.4789L37.2872 3.33032L31.3301 6.46442L30.7751 6.17403L1.07812 21.9791L6.21499 24.6599L4.03721 25.8073L7.24731 27.4824C7.24731 27.4824 8.17004 30.1738 14.4948 31.2964C18.6736 32.0897 20.1266 31.5514 20.1266 31.5514L35.2897 39.4628C35.2897 39.4628 38.5246 41.0883 43.7675 41.1733C49.0105 41.2583 52.1145 42.8767 53.2105 43.3866C54.3064 43.893 64.3786 49.2157 64.3786 49.2157C64.3786 49.2157 68.4549 51.5672 76.8195 53.1856L76.9716 53.1077L76.6392 52.9341L77.0387 52.7252L79.4852 54.0001L81.2493 53.0722L79.7221 52.2754C79.7221 52.2754 81.3731 51.7832 81.6276 51.7053C81.6276 51.7053 87.2524 50.1648 92.5024 46.0002L92.4953 45.9966Z" fill="black" fill-opacity="0.1"/>
<path d="M92.4137 43.6663L93.7889 42.487L95.3445 43.298L97.1404 42.3525L87.0505 37.0864L98.9187 30.8501L70.3778 15.9516L68.101 17.1486L37.2091 1L31.252 4.1341L30.697 3.84371L1 19.6488L6.13687 22.3296L3.95909 23.477L7.16919 25.1521C7.16919 25.1521 8.09191 27.8435 14.4167 28.9661C18.5955 29.7594 20.0485 29.2211 20.0485 29.2211L35.2116 37.1325C35.2116 37.1325 38.4465 38.758 43.6894 38.843C48.9323 38.928 52.0364 40.5464 53.1323 41.0563C54.2283 41.5627 64.3005 46.8854 64.3005 46.8854C64.3005 46.8854 68.3768 49.2369 76.7414 50.8553L76.8934 50.7773L76.5611 50.6038L76.9606 50.3949L79.4071 51.6698L81.1712 50.7419L79.644 49.9451C79.644 49.9451 81.295 49.4529 81.5495 49.375C81.5495 49.375 87.1743 47.8345 92.4243 43.6698L92.4137 43.6663Z" fill="white" stroke="#B5B5B6" stroke-width="0.2" stroke-miterlimit="10"/>
<path d="M66.9093 17.6692L66.8457 18.7281L42.1406 31.1972L42.1724 30.1525L66.9093 17.6692Z" fill="#376547"/>
<path d="M42.173 30.1525L42.1412 31.1972L26.1826 22.6094L26.1932 21.5505L42.173 30.1525Z" fill="#579169"/>
<path d="M28.7634 24.0222L28.7174 25.0775L24.0967 27.6238L24.1426 26.572L28.7634 24.0222Z" fill="#FF6474"/>
<path d="M50.9302 9.08838L66.91 17.6691L42.1732 30.1524L26.1934 21.5504L50.9302 9.08838Z" fill="#7AC38D"/>
<path d="M49.4165 8.82275L49.3493 9.88516L18.6377 25.3821L18.6624 24.3374L49.4165 8.82275Z" fill="#8E6C00"/>
<path d="M18.663 24.3376L18.6382 25.3823L6.50488 18.8521L6.51196 17.8003L18.663 24.3376Z" fill="#B78C06"/>
<path d="M37.2693 2.30322L49.4168 8.82286L18.6627 24.3376L6.51172 17.8002L37.2693 2.30322Z" fill="#FABF15"/>
<path d="M51.8381 31.0095L51.8169 32.0719L46.4043 29.1609L46.4184 28.095L51.8381 31.0095Z" fill="#746A94"/>
<path d="M64.8521 41.6266L64.8133 42.6748L48.335 33.825L48.3526 32.7661L64.8521 41.6266Z" fill="#746A94"/>
<path d="M81.5357 33.2051L81.4756 34.2639L64.8135 42.6747L64.8524 41.6264L81.5357 33.2051Z" fill="#6D648C"/>
<path d="M65.022 24.3374L81.5356 33.205L64.8523 41.6263L48.3528 32.7658L51.8386 31.0093L46.4189 28.0948L53.8573 24.348L59.1674 27.2272L65.022 24.3374Z" fill="#9A8EC3"/>
<path d="M79.1103 37.3025L79.075 38.3649L78.4492 38.6801L78.4881 37.6177L79.1103 37.3025Z" fill="#69A6BE"/>
<path d="M80.4357 38.1809L80.3968 39.2433L80.1953 39.2752L80.2342 38.2128L80.4357 38.1809Z" fill="#69A6BE"/>
<path d="M84.4658 38.6624L84.4234 39.7248L84.2891 40.557L84.3315 39.4946L84.4658 38.6624Z" fill="#69A6BE"/>
<path d="M84.3317 39.4946L84.2893 40.557L83.9746 40.5181L84.017 39.4592L84.3317 39.4946Z" fill="#69A6BE"/>
<path d="M84.0169 39.4592L83.9745 40.5181L83.9639 40.5818L84.0098 39.5194L84.0169 39.4592Z" fill="#69A6BE"/>
<path d="M86.7744 40.0259L86.7285 41.0883L86.6719 41.2512L86.7178 40.1923L86.7744 40.0259Z" fill="#69A6BE"/>
<path d="M86.7886 40.2029L86.7426 41.2653L86.5977 41.6619L86.6472 40.6031L86.7886 40.2029Z" fill="#69A6BE"/>
<path d="M86.6478 40.6032L86.5983 41.662L86.2695 41.6195L86.3155 40.5571L86.6478 40.6032Z" fill="#69A6BE"/>
<path d="M86.3153 40.5571L86.2694 41.6195L86.2588 41.6904L86.3083 40.6315L86.3153 40.5571Z" fill="#69A6BE"/>
<path d="M72.6298 40.7907L72.6015 41.8496L72.3682 41.7079L72.4 40.6455L72.6298 40.7907Z" fill="#69A6BE"/>
<path d="M71.7779 40.9608L71.7497 42.0197L69.9219 41.0281L69.9502 39.9692L71.7779 40.9608Z" fill="#69A6BE"/>
<path d="M72.3995 40.6455L72.3677 41.7079L71.749 42.0196L71.7773 40.9607L72.3995 40.6455Z" fill="#467687"/>
<path d="M73.6162 41.6052L73.5879 42.6641L73.4854 42.6783L73.5172 41.6194L73.6162 41.6052Z" fill="#69A6BE"/>
<path d="M72.7675 41.6016L72.7357 42.6605L72.1807 42.4763L72.2089 41.4175L72.7675 41.6016Z" fill="#69A6BE"/>
<path d="M73.4787 41.7326L73.4505 42.7915L72.7363 42.6604L72.7681 41.6016L73.4787 41.7326Z" fill="#69A6BE"/>
<path d="M73.5174 41.6194L73.4856 42.6783L73.4502 42.7916L73.4785 41.7327L73.5174 41.6194Z" fill="#69A6BE"/>
<path d="M85.8375 42.9897L85.7916 44.0451C85.7916 44.0451 85.7209 44.0982 85.6289 44.169C85.537 44.2398 85.4098 44.3319 85.2683 44.4346C85.1269 44.5373 84.9608 44.6471 84.7911 44.7533C84.6214 44.8596 84.4517 44.9587 84.289 45.0367C84.1264 45.1181 83.932 45.1996 83.734 45.2775C83.536 45.3554 83.3274 45.4297 83.1401 45.4935C82.9527 45.5572 82.783 45.6139 82.6593 45.6528C82.532 45.6918 82.4507 45.7166 82.4365 45.7237L82.4789 44.6684C82.4789 44.6684 82.5779 44.64 82.7017 44.5975C82.8254 44.555 82.9951 44.5019 83.186 44.4382C83.3769 44.3744 83.5784 44.3001 83.78 44.2221C83.9815 44.1442 84.1724 44.0628 84.335 43.9813C84.4976 43.8999 84.6709 43.8007 84.8406 43.698C85.0103 43.5918 85.1729 43.482 85.3178 43.3793C85.4628 43.2766 85.5901 43.1845 85.682 43.1137C85.7739 43.0429 85.834 42.9968 85.8446 42.9897H85.8375Z" fill="#69A6BE"/>
<path d="M86.6967 43.5529L86.6507 44.6083L85.6855 44.3993L85.7315 43.344L86.6967 43.5529Z" fill="#467687"/>
<path d="M87.6055 40.9502L87.556 42.0091C87.5525 42.0339 87.5313 42.1613 87.4924 42.3526C87.4535 42.5438 87.4005 42.7952 87.3262 43.0679C87.252 43.3406 87.1601 43.6345 87.047 43.9037C86.9338 44.1728 86.803 44.4243 86.6475 44.6049L86.6934 43.5496C86.8454 43.3654 86.9798 43.1175 87.0929 42.8448C87.2061 42.5721 87.298 42.2817 87.3722 42.0055C87.4464 41.7293 87.503 41.4779 87.5419 41.2866C87.5808 41.0954 87.5985 40.9679 87.6055 40.9431V40.9502Z" fill="#69A6BE"/>
<path d="M75.9356 43.6133L75.9002 44.6686H75.7871L75.8225 43.6133H75.9356Z" fill="#69A6BE"/>
<path d="M75.8362 43.7866L75.8043 44.8419L74.2559 44.8809L74.2877 43.8256L75.8362 43.7866Z" fill="#69A6BE"/>
<path d="M74.2879 43.8257L74.2561 44.881L73.5879 42.6641L73.6162 41.6052L74.2879 43.8257Z" fill="#467687"/>
<path d="M77.9716 44.8279L77.9362 45.8797L77.7842 45.9151L77.8195 44.8633L77.9716 44.8279Z" fill="#69A6BE"/>
<path d="M76.7842 45.0582L76.7489 46.1135L75.9004 44.6686L75.9357 43.6133L76.7842 45.0582Z" fill="#467687"/>
<path d="M77.9472 45.0403L77.9118 46.0921L77.127 46.131L77.1623 45.0792L77.9472 45.0403Z" fill="#69A6BE"/>
<path d="M77.1617 45.0794L77.1263 46.1311L76.748 46.1134L76.7834 45.0581L77.1617 45.0794Z" fill="#69A6BE"/>
<path d="M78.5623 45.522L78.5269 46.5738L77.9365 45.8797L77.9719 44.8279L78.5623 45.522Z" fill="#467687"/>
<path d="M83.526 45.1326L83.4835 46.1879C83.4446 46.1914 83.229 46.2233 82.9002 46.2623C82.5714 46.3012 82.126 46.3543 81.631 46.4039C81.1361 46.4535 80.5881 46.4995 80.0472 46.5349C79.5098 46.5668 78.9795 46.5881 78.5234 46.5774L78.5588 45.5221C79.0149 45.5292 79.5452 45.5115 80.0825 45.4796C80.6199 45.4478 81.1714 45.3982 81.6664 45.3486C82.1613 45.299 82.6068 45.2459 82.9391 45.2069C83.2679 45.168 83.4835 45.1361 83.5224 45.1326H83.526Z" fill="#69A6BE"/>
<path d="M77.2364 36.2968L79.1102 37.306L78.4844 37.6212L78.6612 37.7133C78.6612 37.7133 78.7001 37.692 78.7602 37.6708C78.8203 37.6496 78.898 37.6177 78.9935 37.5893C79.0889 37.561 79.2056 37.5327 79.3329 37.515C79.4602 37.4973 79.598 37.4866 79.743 37.4902C79.7536 37.4902 79.7642 37.4902 79.7748 37.4902C79.7854 37.4902 79.796 37.4902 79.8066 37.4902C79.8172 37.4902 79.8278 37.4902 79.8384 37.4902C79.8491 37.4902 79.8597 37.4902 79.8703 37.4902C79.8738 37.4902 79.895 37.4937 79.9268 37.5114C79.9586 37.5291 80.0046 37.5539 80.0576 37.6C80.1107 37.646 80.1708 37.7098 80.2344 37.8054C80.298 37.901 80.3687 38.0179 80.4359 38.1737L80.2344 38.2091L80.2768 38.2728L84.4662 38.6588L84.3319 39.4911L84.0172 39.4556L84.0102 39.5194L86.7748 40.0258L86.7182 40.1887L86.789 40.2029L86.6475 40.603L86.3152 40.557L86.3082 40.6314L87.6056 40.9501C87.6021 40.9749 87.5809 41.1024 87.542 41.2936C87.5031 41.4848 87.4501 41.7363 87.3723 42.0125C87.2945 42.2887 87.2061 42.5791 87.093 42.8518C86.9799 43.1245 86.849 43.3724 86.6935 43.5565L85.7283 43.3476L85.8344 42.9935C85.8344 42.9935 85.7637 43.0466 85.6718 43.1174C85.5799 43.1882 85.4526 43.2803 85.3076 43.383C85.1627 43.4857 85.0001 43.5955 84.8304 43.7017C84.6607 43.808 84.4874 43.9071 84.3248 43.985C84.1622 44.0665 83.9677 44.1479 83.7697 44.2259C83.5682 44.3038 83.3632 44.3781 83.1758 44.4419C82.9884 44.5056 82.8187 44.5623 82.6915 44.6012C82.5642 44.6402 82.4829 44.665 82.4688 44.6721L83.1864 44.6473L83.5188 45.136C83.4799 45.1431 83.2642 45.1714 82.9354 45.2104C82.6066 45.2493 82.1612 45.3024 81.6627 45.352C81.1677 45.4016 80.6162 45.4512 80.0788 45.483C79.5415 45.5149 79.0112 45.5362 78.5551 45.5255L77.9647 44.8314L77.8127 44.8668L77.94 45.0439L77.1551 45.0829L76.7733 45.0616L75.9248 43.6167H75.8117L75.8294 43.7903L74.2773 43.8292L73.6092 41.6088L73.5102 41.623L73.4713 41.7363L72.7571 41.6053L72.1985 41.4211C72.1985 41.4211 72.2021 41.3999 72.2162 41.368C72.2304 41.3361 72.2445 41.2936 72.2763 41.2369C72.3081 41.1803 72.347 41.1165 72.4036 41.0422C72.4602 40.9678 72.5309 40.8828 72.6228 40.7907L72.3895 40.6455L71.7672 40.9572L69.9395 39.9656L77.2258 36.2932L77.2364 36.2968Z" fill="#84CFED"/>
<path d="M64.5621 42.356L64.5126 43.4113L62.3242 44.5162L62.3702 43.4609L64.5621 42.356Z" fill="#6D648C"/>
<path d="M62.3704 43.4608L62.3244 44.5162L45.8037 35.6344L45.8285 34.572L62.3704 43.4608Z" fill="#746A94"/>
<path d="M48.02 33.4673L64.562 42.3561L62.37 43.461L45.8281 34.5722L48.02 33.4673Z" fill="#9A8EC3"/>
<path d="M36.8698 28.4351L36.8203 29.4904L33.0127 31.4381L33.0587 30.3828L36.8698 28.4351Z" fill="#FF6474"/>
<path d="M33.0587 30.3827L33.0128 31.438L25.7158 27.5177L25.7406 26.4553L33.0587 30.3827Z" fill="#FF9B9F"/>
<path d="M29.5478 24.5076L36.8695 28.4349L33.0584 30.3827L25.7402 26.4553L29.5478 24.5076Z" fill="#FFCBCB"/>
<path d="M32.1713 30.8359L32.1218 31.8913L29.3076 33.2936L29.3536 32.2383L32.1713 30.8359Z" fill="#FF6474"/>
<path d="M29.3539 32.2384L29.308 33.2938L17.5176 26.976L17.5423 25.9136L29.3539 32.2384Z" fill="#FF9B9F"/>
<path d="M25.1644 22.0957L28.7775 24.0293L24.178 26.5578L32.182 30.8429L29.3679 32.2452L17.5527 25.9204L25.1644 22.0957Z" fill="#FFCBCB"/>
<path d="M104 32H122" stroke="#B5B5B6" stroke-width="0.5" stroke-linejoin="round" stroke-dasharray="2 2"/>
<path d="M129.727 36.1172C128.039 36.1172 126.826 35.2148 126.773 33.8672H127.84C127.898 34.6758 128.701 35.1797 129.715 35.1797C130.834 35.1797 131.643 34.5762 131.648 33.6914C131.643 32.7656 130.904 32.1152 129.586 32.1094H128.895V31.1836H129.586C130.617 31.1836 131.338 30.6035 131.332 29.7305C131.338 28.8809 130.717 28.3184 129.75 28.3125C128.842 28.3184 128.016 28.8164 127.969 29.6484H126.949C127.002 28.3008 128.256 27.3984 129.762 27.3984C131.379 27.3984 132.363 28.459 132.352 29.6719C132.363 30.6387 131.801 31.3418 130.91 31.5938V31.6523C132.018 31.8223 132.686 32.6133 132.68 33.6914C132.686 35.0859 131.42 36.1172 129.727 36.1172ZM134.044 36V27.5156H139.153V28.4531H135.098V31.2891H138.766V32.2148H135.098V36H134.044Z" fill="#444444"/>
<path d="M104 58H122" stroke="#B5B5B6" stroke-width="0.5" stroke-linejoin="round" stroke-dasharray="2 2"/>
<path d="M129.797 53.5156V62H128.73V54.6172H128.684L126.621 55.9883V54.9219L128.73 53.5156H129.797ZM131.899 62V53.5156H137.009V54.4531H132.954V57.2891H136.622V58.2148H132.954V62H131.899Z" fill="#444444"/>
</svg>
