<svg width="151" height="32" viewBox="0 0 151 32" fill="none" xmlns="http://www.w3.org/2000/svg">
<g clip-path="url(#clip0_1646_8005)">
<path d="M20.4171 21.834C18.9947 21.9078 18.3033 22.1745 17.4042 23.3612V25.6238C19.0212 27.3344 20.3156 27.7853 23.2455 27.7732C27.2254 27.1252 28.9323 26.0905 30.6239 22.5128C29.4601 23.2962 28.4366 23.4083 26.0739 23.135C23.3114 22.2663 21.91 21.8941 20.4171 21.834Z" fill="#2E4182"/>
<path d="M14.3914 21.8905C15.8137 21.9644 16.5052 22.2311 17.4042 23.4178V25.6803C15.7873 27.3909 14.4929 27.8419 11.563 27.8298C7.58309 27.1818 5.87611 26.1471 4.18457 22.5693C5.34831 23.3527 6.3719 23.4648 8.73459 23.1915C11.4971 22.3228 12.8985 21.9507 14.3914 21.8905Z" fill="#2E4182"/>
<path d="M32.4681 5.65621V4.18555L5.22949 14.763V17.5912C11.9164 19.502 15.839 20.6563 18.5106 20.6457C21.0781 20.7681 23.8512 18.998 28.4715 16.2902V12.4439L21.9539 15.159L30.808 10.4076V17.9306C29.8281 18.6197 29.8278 19.0388 30.808 19.8538L30.0087 21.2679H32.6526L31.8533 19.8538C32.7334 19.0717 32.7584 18.6497 31.8533 17.9306V9.89851L32.4681 9.61569V8.37128L19.8633 14.763L32.4681 7.40969V6.44811L19.8633 13.0661L32.4681 5.65621Z" fill="#2E4182"/>
<path d="M3.09083 7.32114L15.9147 0.0766851C16.0018 0.0274724 16.1046 0.0137992 16.2015 0.0385186L32.4674 4.18573L19.2478 11.7653C17.9641 12.5664 16.9361 13.2509 16.9728 14.8763C17.0049 16.3021 18.326 16.806 20.7849 15.8945L18.8585 16.8327C18.0751 17.2142 17.1861 17.3211 16.3346 17.1361L4.17578 14.4938C0.69089 13.7365 -0.0141816 9.07523 3.09083 7.32114Z" fill="#5BB9E2"/>
</g>
<path d="M45.3968 10.5802C46.6486 10.5802 47.7164 10.838 48.6001 11.3535C49.4838 11.8689 49.9256 12.416 49.9256 12.9946C49.9256 13.1524 49.8888 13.2891 49.8152 13.4049C49.752 13.5101 49.6679 13.589 49.5627 13.6416C49.468 13.6836 49.3628 13.7047 49.2471 13.7047C49.0577 13.7047 48.7737 13.61 48.395 13.4206C48.0162 13.2208 47.5954 13.0261 47.1326 12.8368C46.6697 12.6369 46.2436 12.537 45.8544 12.537C45.2337 12.537 44.9234 12.7894 44.9234 13.2944C44.9234 13.4522 44.9707 13.6047 45.0654 13.752C45.1706 13.8888 45.3336 14.0361 45.5546 14.1939C45.7755 14.3411 45.9911 14.4726 46.2015 14.5884C46.4119 14.7041 46.7012 14.8619 47.0694 15.0618C47.4376 15.2511 47.748 15.4194 48.0005 15.5667C48.8105 16.0296 49.3786 16.4714 49.7047 16.8922C50.0308 17.313 50.1939 17.797 50.1939 18.344C50.1939 20.5216 48.7263 21.6105 45.7913 21.6105C45.2127 21.6105 44.6498 21.5526 44.1028 21.4369C43.5663 21.3212 43.0929 21.1686 42.6826 20.9793C42.2828 20.7899 41.9252 20.5795 41.6096 20.3481C41.3045 20.1166 41.073 19.8799 40.9152 19.638C40.7574 19.396 40.6785 19.1698 40.6785 18.9594C40.6785 18.728 40.7522 18.5334 40.8995 18.3756C41.0573 18.2072 41.2834 18.1231 41.578 18.1231C41.7989 18.1231 42.3302 18.2651 43.1718 18.5491C44.0134 18.8227 44.6919 18.9594 45.2074 18.9594C45.6808 18.9594 45.9175 18.7964 45.9175 18.4702C45.9175 18.3756 45.8965 18.2914 45.8544 18.2178C45.8228 18.1336 45.7597 18.0547 45.665 17.9811C45.5809 17.8969 45.4809 17.8233 45.3652 17.7601C45.26 17.6865 45.1075 17.5971 44.9076 17.4919C44.7182 17.3867 44.5236 17.2815 44.3237 17.1763C44.1344 17.0711 43.8819 16.9343 43.5663 16.766C43.2507 16.5977 42.9456 16.4294 42.651 16.261C42.2618 16.0401 41.9252 15.7666 41.6411 15.4405C41.3676 15.1144 41.1677 14.7935 41.0415 14.4779C40.9152 14.1518 40.8521 13.852 40.8521 13.5784C40.8521 12.6948 41.2466 11.9741 42.0356 11.4166C42.8246 10.859 43.945 10.5802 45.3968 10.5802ZM52.1633 18.1231V16.261C51.9003 16.2505 51.6899 16.2084 51.5321 16.1348C51.3743 16.0506 51.2586 15.9454 51.1849 15.8192C51.1218 15.693 51.0903 15.5352 51.0903 15.3458C51.0903 14.7462 51.4532 14.42 52.1791 14.3674V12.8999C52.1791 12.5001 52.4684 12.1425 53.047 11.8269C53.6256 11.5007 54.1989 11.3377 54.767 11.3377C55.1142 11.3377 55.3403 11.4376 55.4455 11.6375C55.5507 11.8374 55.6033 12.1372 55.6033 12.537L55.6191 14.3517H56.0452C56.6238 14.3517 57.0183 14.4306 57.2287 14.5884C57.4496 14.7356 57.5601 15.0092 57.5601 15.4089C57.5601 15.5772 57.5285 15.7193 57.4654 15.835C57.4023 15.9507 57.2971 16.0401 57.1498 16.1032C57.013 16.1664 56.8447 16.2137 56.6448 16.2453C56.4449 16.2663 56.1977 16.2768 55.9032 16.2768H55.6191V18.0126C55.6191 18.1809 55.6244 18.323 55.6349 18.4387C55.6559 18.5439 55.6822 18.628 55.7138 18.6912C55.7454 18.7543 55.7874 18.7964 55.84 18.8174C55.9032 18.8384 55.9768 18.849 56.061 18.849C56.1872 18.849 56.2924 18.8069 56.3766 18.7227C56.4607 18.628 56.5238 18.5281 56.5659 18.4229C56.6185 18.3072 56.6816 18.2072 56.7553 18.1231C56.8394 18.0284 56.9341 17.9811 57.0393 17.9811C57.2813 17.9811 57.4654 18.0389 57.5916 18.1546C57.7284 18.2704 57.7968 18.4124 57.7968 18.5807C57.7968 18.8647 57.7389 19.1698 57.6232 19.4959C57.518 19.8221 57.3602 20.1377 57.1498 20.4427C56.9394 20.7478 56.6448 21.0003 56.2661 21.2002C55.8979 21.4001 55.4824 21.5 55.0195 21.5C53.978 21.5 53.2416 21.237 52.8103 20.711C52.379 20.185 52.1633 19.3224 52.1633 18.1231ZM62.7355 18.1704C62.7355 18.7701 62.967 19.0699 63.4298 19.0699C63.5876 19.0699 63.7244 19.0225 63.8401 18.9279C63.9664 18.8227 64.061 18.6806 64.1242 18.5018C64.1873 18.323 64.2188 18.1178 64.2188 17.8864V15.7719C64.2188 15.4142 64.282 15.1038 64.4082 14.8408C64.5344 14.5673 64.7185 14.3569 64.9605 14.2096C65.2025 14.0624 65.4865 13.9887 65.8126 13.9887C66.3807 13.9887 66.8225 14.115 67.1381 14.3674C67.4537 14.6094 67.6115 15.0618 67.6115 15.7245V19.8273C67.6115 20.469 67.48 20.9109 67.217 21.1528C66.954 21.3948 66.4912 21.5158 65.8284 21.5158C65.5444 21.5158 65.3024 21.4895 65.1025 21.4369C64.9026 21.3738 64.7396 21.2843 64.6133 21.1686C64.4976 21.0529 64.4082 20.9004 64.3451 20.711C63.9138 20.995 63.4561 21.1949 62.9722 21.3106C62.4988 21.4264 61.9676 21.4842 61.3784 21.4842C60.6315 21.4842 60.095 21.1949 59.7689 20.6163C59.4428 20.0272 59.2797 19.0646 59.2797 17.7286C59.2797 17.0658 59.2955 16.5293 59.327 16.119C59.3586 15.6982 59.4059 15.3405 59.4691 15.046C59.5427 14.7409 59.6479 14.5147 59.7847 14.3674C59.9319 14.2202 60.1003 14.115 60.2896 14.0518C60.4895 13.9887 60.7472 13.9572 61.0628 13.9572C61.652 13.9572 62.0728 14.0676 62.3252 14.2885C62.5882 14.5095 62.7197 14.8408 62.7197 15.2827L62.7355 18.1704ZM77.5529 19.133C77.5529 19.9851 77.4109 20.5953 77.1269 20.9635C76.8428 21.3212 76.4063 21.5 75.8171 21.5C75.1439 21.5 74.681 21.2896 74.4285 20.8688C73.7447 21.3632 72.9189 21.6105 71.951 21.6105C71.1305 21.6105 70.4467 21.2738 69.8996 20.6005C69.3526 19.9167 69.0791 18.9857 69.0791 17.8075C69.0791 16.6082 69.3473 15.6561 69.8839 14.9513C70.4204 14.2359 71.1094 13.8783 71.951 13.8783C72.7085 13.8783 73.4186 14.1202 74.0813 14.6041V12.5843C74.0813 11.9426 74.2391 11.4692 74.5547 11.1641C74.8703 10.8485 75.2911 10.6907 75.8171 10.6907C76.3957 10.6907 76.8271 10.8064 77.1111 11.0379C77.4057 11.2693 77.5529 11.7374 77.5529 12.4423V19.133ZM74.1129 19.2277L74.0971 16.2768C73.9183 15.9823 73.6868 15.835 73.4028 15.835C73.224 15.835 73.0609 15.9349 72.9136 16.1348C72.7769 16.3347 72.6717 16.5819 72.598 16.8765C72.5244 17.171 72.4876 17.4814 72.4876 17.8075C72.4876 18.2914 72.5665 18.7227 72.7243 19.1014C72.8821 19.4802 73.103 19.6695 73.387 19.6695C73.4396 19.6695 73.4922 19.6643 73.5448 19.6537C73.5974 19.6432 73.6448 19.6327 73.6868 19.6222C73.7289 19.6011 73.771 19.5801 73.8131 19.5591C73.8552 19.5275 73.892 19.4959 73.9235 19.4644C73.9551 19.4328 73.9867 19.396 74.0182 19.3539C74.0498 19.3118 74.0813 19.2698 74.1129 19.2277ZM87.1787 17.05C87.1787 18.849 87.1261 20.1061 87.0209 20.8215C86.9368 21.4632 86.8053 22.0155 86.6264 22.4784C86.4476 22.9518 86.1951 23.3673 85.869 23.725C85.5429 24.0932 85.1273 24.3667 84.6224 24.5455C84.1174 24.7244 83.5178 24.8138 82.8235 24.8138C82.2659 24.8138 81.7452 24.7296 81.2612 24.5613C80.7878 24.4035 80.4091 24.2036 80.1251 23.9617C79.8516 23.7302 79.6359 23.4988 79.4781 23.2674C79.3203 23.0359 79.2414 22.836 79.2414 22.6677C79.2414 22.4994 79.294 22.3416 79.3992 22.1943C79.5149 22.0576 79.6675 21.9892 79.8568 21.9892C79.9936 21.9892 80.1514 22.0313 80.3302 22.1154C80.5196 22.1996 80.6984 22.2943 80.8667 22.3995C81.0351 22.5047 81.2349 22.5993 81.4664 22.6835C81.6978 22.7677 81.924 22.8097 82.1449 22.8097C82.713 22.8097 83.1128 22.6677 83.3442 22.3837C83.5862 22.0996 83.7071 21.6946 83.7071 21.1686C83.5283 21.2423 83.3547 21.3054 83.1864 21.358C83.0181 21.4106 82.855 21.4527 82.6972 21.4842C82.5394 21.5158 82.3869 21.5368 82.2396 21.5473C82.1028 21.5579 81.9661 21.5631 81.8293 21.5631C81.2086 21.5631 80.6774 21.3895 80.2355 21.0424C79.7937 20.6952 79.4728 20.2692 79.273 19.7642C79.0836 19.2487 78.9889 18.6964 78.9889 18.1073C78.9889 17.5182 78.9942 17.0185 79.0047 16.6082C79.0257 16.1979 79.0626 15.835 79.1152 15.5194C79.1678 15.1933 79.2256 14.9355 79.2887 14.7462C79.3624 14.5568 79.4623 14.4043 79.5886 14.2885C79.7148 14.1623 79.8568 14.0781 80.0146 14.0361C80.1724 13.994 80.3618 13.9729 80.5827 13.9729C81.2455 13.9729 81.7083 14.0887 81.9713 14.3201C82.2449 14.541 82.3816 14.8934 82.3816 15.3774L82.3974 17.9179C82.3974 18.0863 82.3974 18.2125 82.3974 18.2967C82.3974 18.3703 82.4027 18.465 82.4132 18.5807C82.4342 18.6964 82.4553 18.7806 82.4763 18.8332C82.5079 18.8858 82.5447 18.9436 82.5868 19.0068C82.6394 19.0594 82.7025 19.0962 82.7761 19.1172C82.8603 19.1383 82.9602 19.1488 83.0759 19.1488C83.3915 19.1488 83.5862 19.0646 83.6598 18.8963C83.744 18.7175 83.786 18.3966 83.786 17.9337L83.8018 15.3774C83.8018 15.0512 83.8544 14.7882 83.9596 14.5884C84.0753 14.3885 84.2647 14.2359 84.5277 14.1307C84.7907 14.0255 85.1484 13.9729 85.6007 13.9729C85.8743 13.9729 86.1057 14.0203 86.2951 14.115C86.4949 14.1991 86.6527 14.3148 86.7685 14.4621C86.8842 14.5989 86.9683 14.8093 87.0209 15.0933C87.0841 15.3668 87.1261 15.6456 87.1472 15.9297C87.1682 16.2137 87.1787 16.5872 87.1787 17.05ZM102.485 15.7245L100.512 19.7642C100.344 20.1008 100.165 20.3428 99.9756 20.4901C99.7862 20.6268 99.56 20.6952 99.297 20.6952C98.9604 20.6952 98.6764 20.5795 98.4449 20.3481C98.2135 20.1061 97.9137 19.6748 97.5455 19.0541L95.715 15.7245V20.1903C95.715 20.6426 95.6098 20.974 95.3994 21.1844C95.1995 21.3948 94.8944 21.5 94.4841 21.5C94.0213 21.5 93.6846 21.4001 93.4742 21.2002C93.2638 20.9898 93.1586 20.5848 93.1586 19.9851V13.105C93.1586 12.295 93.3427 11.6848 93.7109 11.2746C94.0791 10.8643 94.6998 10.6591 95.573 10.6591C95.8991 10.6591 96.1831 10.717 96.4251 10.8327C96.667 10.9379 96.8459 11.0642 96.9616 11.2114C97.0878 11.3482 97.2088 11.5218 97.3245 11.7322L99.4391 16.3557L101.68 11.8111C102.069 11.0536 102.769 10.6749 103.779 10.6749C104.252 10.6749 104.657 10.7591 104.994 10.9274C105.33 11.0852 105.593 11.3482 105.783 11.7164C105.983 12.0741 106.082 12.5264 106.082 13.0735V19.9378C106.072 20.9793 105.414 21.5 104.11 21.5C103.637 21.5 103.247 21.3738 102.942 21.1213C102.648 20.8583 102.495 20.4375 102.485 19.8589V15.7245ZM111.853 21.5947C110.57 21.5947 109.507 21.2633 108.665 20.6005C107.834 19.9378 107.419 19.0331 107.419 17.8864C107.419 16.645 107.829 15.6667 108.65 14.9513C109.481 14.2254 110.549 13.8625 111.853 13.8625C113.084 13.8625 113.983 14.0834 114.551 14.5252C115.13 14.9566 115.419 15.5509 115.419 16.3084C115.419 16.4557 115.398 16.5977 115.356 16.7344C115.325 16.8712 115.267 17.008 115.183 17.1447C115.109 17.271 115.004 17.3919 114.867 17.5077C114.741 17.6129 114.593 17.7128 114.425 17.8075C114.257 17.8916 114.057 17.96 113.825 18.0126C113.594 18.0547 113.347 18.0757 113.084 18.0757L110.859 18.0915C110.964 18.4282 111.153 18.6964 111.427 18.8963C111.7 19.0857 112.048 19.1803 112.468 19.1803C112.921 19.1803 113.384 19.1225 113.857 19.0068C114.057 18.9542 114.273 18.87 114.504 18.7543C114.746 18.6386 114.92 18.5807 115.025 18.5807C115.204 18.5807 115.34 18.6333 115.435 18.7385C115.54 18.8437 115.593 18.9752 115.593 19.133C115.593 19.3224 115.509 19.5538 115.34 19.8273C115.172 20.0903 114.935 20.3586 114.63 20.6321C114.336 20.8951 113.941 21.1213 113.447 21.3106C112.952 21.5 112.421 21.5947 111.853 21.5947ZM110.78 17.0816C111.506 17.0711 111.9 17.0658 111.963 17.0658C112.121 17.0658 112.237 16.9711 112.311 16.7818C112.363 16.645 112.39 16.4557 112.39 16.2137C112.39 15.5509 112.19 15.2196 111.79 15.2196C111.643 15.2196 111.495 15.2985 111.348 15.4563C111.211 15.6141 111.09 15.8402 110.985 16.1348C110.88 16.4188 110.812 16.7344 110.78 17.0816ZM121.743 17.2552C121.743 16.6661 121.511 16.3715 121.048 16.3715C120.828 16.3715 120.643 16.4662 120.496 16.6555C120.359 16.8344 120.28 17.0763 120.259 17.3814V19.8115C120.259 20.4533 120.128 20.8951 119.865 21.1371C119.602 21.379 119.139 21.5 118.476 21.5C117.856 21.5 117.43 21.358 117.198 21.0739C116.977 20.7794 116.867 20.3007 116.867 19.638V15.7561C116.867 15.2196 117.009 14.7882 117.293 14.4621C117.587 14.136 117.977 13.9729 118.461 13.9729C118.86 13.9729 119.197 14.0308 119.47 14.1465C119.744 14.2622 119.949 14.4621 120.086 14.7462C120.906 14.2096 121.906 13.9414 123.084 13.9414C123.831 13.9414 124.367 14.2359 124.694 14.8251C125.03 15.4142 125.199 16.382 125.199 17.7286C125.199 18.3913 125.183 18.9331 125.151 19.3539C125.12 19.7642 125.067 20.1219 124.993 20.427C124.93 20.7215 124.825 20.9424 124.678 21.0897C124.531 21.237 124.357 21.3422 124.157 21.4053C123.968 21.4684 123.721 21.5 123.415 21.5C122.826 21.5 122.4 21.3895 122.137 21.1686C121.885 20.9477 121.759 20.6216 121.759 20.1903L121.743 17.2552ZM127.411 18.1231V16.261C127.148 16.2505 126.938 16.2084 126.78 16.1348C126.622 16.0506 126.506 15.9454 126.433 15.8192C126.37 15.693 126.338 15.5352 126.338 15.3458C126.338 14.7462 126.701 14.42 127.427 14.3674V12.8999C127.427 12.5001 127.716 12.1425 128.295 11.8269C128.873 11.5007 129.447 11.3377 130.015 11.3377C130.362 11.3377 130.588 11.4376 130.693 11.6375C130.799 11.8374 130.851 12.1372 130.851 12.537L130.867 14.3517H131.293C131.872 14.3517 132.266 14.4306 132.476 14.5884C132.697 14.7356 132.808 15.0092 132.808 15.4089C132.808 15.5772 132.776 15.7193 132.713 15.835C132.65 15.9507 132.545 16.0401 132.398 16.1032C132.261 16.1664 132.092 16.2137 131.893 16.2453C131.693 16.2663 131.446 16.2768 131.151 16.2768H130.867V18.0126C130.867 18.1809 130.872 18.323 130.883 18.4387C130.904 18.5439 130.93 18.628 130.962 18.6912C130.993 18.7543 131.035 18.7964 131.088 18.8174C131.151 18.8384 131.225 18.849 131.309 18.849C131.435 18.849 131.54 18.8069 131.624 18.7227C131.709 18.628 131.772 18.5281 131.814 18.4229C131.866 18.3072 131.929 18.2072 132.003 18.1231C132.087 18.0284 132.182 17.9811 132.287 17.9811C132.529 17.9811 132.713 18.0389 132.839 18.1546C132.976 18.2704 133.045 18.4124 133.045 18.5807C133.045 18.8647 132.987 19.1698 132.871 19.4959C132.766 19.8221 132.608 20.1377 132.398 20.4427C132.187 20.7478 131.893 21.0003 131.514 21.2002C131.146 21.4001 130.73 21.5 130.267 21.5C129.226 21.5 128.489 21.237 128.058 20.711C127.627 20.185 127.411 19.3224 127.411 18.1231ZM139.316 17.7601C139.316 17.2131 139.248 16.7344 139.111 16.3242C138.974 15.9034 138.774 15.693 138.511 15.693C138.333 15.693 138.175 15.7982 138.038 16.0086C137.901 16.219 137.801 16.4767 137.738 16.7818C137.675 17.0869 137.644 17.413 137.644 17.7601C137.644 18.2967 137.717 18.7701 137.864 19.1803C138.012 19.5801 138.222 19.78 138.496 19.78C138.769 19.78 138.974 19.5801 139.111 19.1803C139.248 18.7806 139.316 18.3072 139.316 17.7601ZM138.496 21.6105C137.675 21.6105 136.933 21.4632 136.271 21.1686C135.618 20.8741 135.092 20.4322 134.693 19.8431C134.303 19.254 134.109 18.5649 134.109 17.7759C134.109 16.5766 134.519 15.6246 135.34 14.9197C136.16 14.2149 137.212 13.8625 138.496 13.8625C139.779 13.8625 140.826 14.2149 141.636 14.9197C142.446 15.6246 142.851 16.5766 142.851 17.7759C142.851 18.9647 142.435 19.901 141.604 20.5848C140.784 21.2686 139.748 21.6105 138.496 21.6105ZM147.567 19.8115C147.567 20.4427 147.435 20.8846 147.172 21.1371C146.909 21.379 146.441 21.5 145.768 21.5C145.147 21.5 144.727 21.358 144.506 21.0739C144.285 20.7794 144.174 20.3007 144.174 19.638V15.7561C144.174 15.3984 144.237 15.0881 144.364 14.8251C144.49 14.5515 144.674 14.3411 144.916 14.1939C145.158 14.0466 145.442 13.9729 145.768 13.9729C146.568 13.9729 147.094 14.2044 147.346 14.6673C147.956 14.2044 148.545 13.9729 149.113 13.9729C150.218 13.9729 150.77 14.4989 150.77 15.5509C150.77 15.9717 150.649 16.3136 150.407 16.5766C150.165 16.8396 149.85 16.9711 149.461 16.9711C149.229 16.9711 149.04 16.9238 148.892 16.8291C148.756 16.7344 148.624 16.6398 148.498 16.5451C148.382 16.4504 148.245 16.4031 148.088 16.4031C147.856 16.4031 147.683 16.482 147.567 16.6398V19.8115Z" fill="#5BB9E2"/>
<defs>
<clipPath id="clip0_1646_8005">
<rect width="34.6667" height="32" fill="white"/>
</clipPath>
</defs>
</svg>
