<svg xmlns="http://www.w3.org/2000/svg" width="20" height="20" viewBox="0 0 20 20" fill="none">
    <path d="M4.43057 16.1985C4.93751 15.0042 6.1211 14.1665 7.50033 14.1665H12.5003C13.8796 14.1665 15.0631 15.0042 15.5701 16.1985M13.3337 7.91651C13.3337 9.75746 11.8413 11.2498 10.0003 11.2498C8.15938 11.2498 6.66699 9.75746 6.66699 7.91651C6.66699 6.07556 8.15938 4.58317 10.0003 4.58317C11.8413 4.58317 13.3337 6.07556 13.3337 7.91651ZM18.3337 9.99984C18.3337 14.6022 14.6027 18.3332 10.0003 18.3332C5.39795 18.3332 1.66699 14.6022 1.66699 9.99984C1.66699 5.39747 5.39795 1.6665 10.0003 1.6665C14.6027 1.6665 18.3337 5.39747 18.3337 9.99984Z" stroke="#444444" stroke-linecap="round" stroke-linejoin="round"/>
</svg>