<svg width="20" height="20" viewBox="0 0 20 20" fill="none" xmlns="http://www.w3.org/2000/svg">
<rect x="2" y="2" width="16" height="16" rx="8" fill="#BFBFBF"/>
<path fill-rule="evenodd" clip-rule="evenodd" d="M12.3047 7.11932C12.4638 6.96023 12.7217 6.96023 12.8808 7.11932C13.0399 7.27842 13.0399 7.53636 12.8808 7.69546L10.5761 10.0002L12.8806 12.3047C13.0397 12.4638 13.0397 12.7218 12.8806 12.8809C12.7215 13.04 12.4635 13.04 12.3044 12.8809L9.99998 10.5764L7.69568 12.8807C7.53659 13.0398 7.27865 13.0398 7.11955 12.8807C6.96046 12.7216 6.96046 12.4637 7.11955 12.3046L9.42385 10.0002L7.11932 7.69563C6.96023 7.53653 6.96023 7.27859 7.11932 7.11949C7.27841 6.9604 7.53635 6.9604 7.69544 7.11949L9.99998 9.42408L12.3047 7.11932Z" fill="#F5F5F5"/>
</svg>
