<svg xmlns="http://www.w3.org/2000/svg" width="41" height="40" viewBox="0 0 41 40" fill="none">
    <path d="M40.5 19.9993C40.5 31.0459 31.5452 40 20.5 40C9.45474 40 0.5 31.0459 0.5 19.9993C0.5 8.95475 9.45474 0 20.5 0C31.5452 0 40.5 8.95475 40.5 19.9993Z" fill="url(#paint0_linear_199_3797)"/>
    <path d="M25.3642 30.9732H15.636C12.1383 30.9732 9.29199 28.1275 9.29199 24.6311V15.1751C9.29199 11.6755 12.1383 8.83105 15.636 8.83105H25.3642C28.8624 8.83105 31.7081 11.6755 31.7081 15.1751V24.6311C31.7081 28.1275 28.8624 30.9732 25.3642 30.9732ZM15.636 10.8812C13.2696 10.8812 11.3428 12.8068 11.3428 15.1751V24.6311C11.3428 26.9969 13.2696 28.923 15.636 28.923H25.3642C27.7319 28.923 29.6573 26.9969 29.6573 24.6311V15.1751C29.6573 12.8068 27.7319 10.8812 25.3642 10.8812H15.636Z" fill="white"/>
    <path d="M20.5006 25.7126C17.2952 25.7126 14.6895 23.1069 14.6895 19.9022C14.6895 16.6975 17.2952 14.0923 20.5006 14.0923C23.7046 14.0923 26.3104 16.6974 26.3104 19.9022C26.3104 23.1069 23.7046 25.7126 20.5006 25.7126ZM20.5006 16.1425C18.4264 16.1425 16.7403 17.8293 16.7403 19.9022C16.7403 21.9769 18.4264 23.6624 20.5006 23.6624C22.5734 23.6624 24.2602 21.9769 24.2602 19.9022C24.2602 17.8293 22.5734 16.1425 20.5006 16.1425Z" fill="white"/>
    <path d="M27.883 13.9791C27.883 14.7343 27.2707 15.3459 26.5155 15.3459C25.761 15.3459 25.1494 14.7343 25.1494 13.9791C25.1494 13.2252 25.761 12.6123 26.5155 12.6123C27.2707 12.6123 27.883 13.2252 27.883 13.9791Z" fill="white"/>
    <defs>
        <linearGradient id="paint0_linear_199_3797" x1="6.43123" y1="34.0688" x2="33.318" y2="7.18204" gradientUnits="userSpaceOnUse">
            <stop offset="0.02995" stop-color="#FCB214"/>
            <stop offset="0.18706" stop-color="#F46131"/>
            <stop offset="0.2997" stop-color="#EE2E44"/>
            <stop offset="0.35484" stop-color="#ED1B4C"/>
            <stop offset="0.70737" stop-color="#8F2685"/>
            <stop offset="1" stop-color="#5757A2"/>
        </linearGradient>
    </defs>
</svg>