<svg xmlns="http://www.w3.org/2000/svg" width="41" height="40" viewBox="0 0 41 40" fill="none">
    <path d="M40.5 19.9994C40.5 31.0459 31.5452 40.0001 20.5 40.0001C9.45469 40.0001 0.5 31.0459 0.5 19.9994C0.5 8.95476 9.45469 0 20.5 0C31.5452 0 40.5 8.95476 40.5 19.9994Z" fill="#FCEE2C"/>
    <path d="M17.877 20.0323H18.5723L18.2246 19.2759L17.877 20.0323Z" fill="#3C1D1D"/>
    <path d="M20.8764 10.2256C14.6017 10.2256 9.51367 14.2423 9.51367 19.2005C9.51367 22.1451 11.3158 24.7584 14.089 26.396C14.671 26.7406 14.1621 27.5947 14.1621 27.5947L11.8808 30.5802C11.8392 30.7024 11.8738 30.8334 11.9626 30.9216C12.0243 30.9833 12.1062 31.0174 12.1944 31.0174C12.2625 31.0174 12.3304 30.9903 12.3922 30.9424C12.3922 30.9424 13.7911 30.6627 15.7518 29.7022C17.3517 28.9816 18.8294 28.0249 18.8294 28.0249C19.4983 28.1206 20.1804 28.1754 20.8764 28.1754C27.1499 28.1754 32.2379 24.1582 32.2379 19.2005C32.2379 14.2423 27.1499 10.2256 20.8764 10.2256ZM15.1276 21.7735H15.1258C15.1264 21.7861 15.1276 21.7981 15.1276 21.8101C15.1276 22.2522 14.7693 22.6106 14.3271 22.6106C13.8856 22.6106 13.5272 22.2522 13.5272 21.8101C13.5272 21.7981 13.5284 21.7861 13.5284 21.7735H13.5272V17.9918H12.4552V17.9887C12.0766 17.9616 11.7774 17.6467 11.7774 17.2606C11.7774 16.8744 12.0766 16.5601 12.4552 16.5318V16.5299H16.0227C16.4264 16.5299 16.7533 16.8568 16.7533 17.2606C16.7533 17.6643 16.4264 17.9918 16.0227 17.9918H15.1276V21.7735ZM29.1736 22.574C28.9135 22.574 28.6823 22.4487 28.5362 22.256L28.5355 22.2566L27.1448 20.3739L26.8513 20.6668V21.7943C26.8513 22.2365 26.4935 22.5954 26.052 22.5954C25.7068 22.5954 25.4146 22.3744 25.3025 22.0683C25.2313 22.3694 24.9617 22.5954 24.6386 22.5954V22.6106H21.6524V22.5911C21.3532 22.5633 21.1025 22.37 20.9904 22.1042C20.9784 22.1331 20.9709 22.164 20.9558 22.1918C20.8204 22.4412 20.5564 22.6106 20.2523 22.6106H20.2516C20.21 22.6106 20.1678 22.6062 20.1275 22.5999C20.1206 22.5993 20.1137 22.598 20.1068 22.5961C20.0677 22.5892 20.0299 22.5797 19.9934 22.5665C19.987 22.564 19.9808 22.5627 19.9738 22.5602C19.936 22.5457 19.9002 22.5293 19.8655 22.5104C19.8642 22.5098 19.8629 22.5086 19.8611 22.5079C19.8251 22.4884 19.7912 22.4651 19.7584 22.4392C19.7572 22.438 19.7559 22.4367 19.754 22.4361C19.7212 22.4103 19.6916 22.3807 19.6633 22.3505C19.6614 22.3479 19.6595 22.346 19.6577 22.3448C19.5707 22.2478 19.5078 22.1313 19.4756 22.0009L19.2167 21.4365H17.2314L16.9719 22.0009C16.8862 22.3505 16.5713 22.6106 16.1953 22.6106C15.7537 22.6106 15.3954 22.2522 15.3954 21.8101C15.3954 21.7067 15.4155 21.6085 15.4514 21.5178L15.4526 21.514C15.4621 21.4913 15.4722 21.468 15.4835 21.446L17.4235 17.1875C17.4909 16.8133 17.8178 16.5299 18.2108 16.5299C18.2152 16.5299 18.2197 16.5305 18.2241 16.5305C18.2285 16.5305 18.2323 16.5299 18.2373 16.5299C18.6303 16.5299 18.9566 16.8133 19.024 17.1875L20.9268 21.3641V17.4866H20.9331C20.9299 17.4558 20.9268 17.4243 20.9268 17.3922C20.9268 16.9507 21.2852 16.5916 21.7274 16.5916C22.1689 16.5916 22.5273 16.9507 22.5273 17.3922C22.5273 17.4243 22.5254 17.4558 22.5216 17.4866H22.5273V21.2287H24.6386C24.9088 21.2287 25.14 21.3868 25.2508 21.6148V17.3978C25.2508 16.9563 25.6098 16.5979 26.052 16.5979C26.4935 16.5979 26.8513 16.9563 26.8513 17.3978V18.4044L28.3869 16.8687C28.5343 16.7031 28.7478 16.5979 28.9865 16.5979C29.4287 16.5979 29.7858 16.9563 29.7858 17.3978C29.7858 17.6032 29.709 17.789 29.5824 17.9301L29.5836 17.9313L29.571 17.9439C29.5585 17.9566 29.5458 17.9691 29.5326 17.9824L28.2874 19.2282L29.7965 21.2709C29.9074 21.4082 29.9742 21.5826 29.9742 21.7735C29.9742 22.2157 29.6157 22.574 29.1736 22.574Z" fill="#3C1D1D"/>
    <path d="M21.0489 21.7321C21.0471 21.7132 21.0439 21.6936 21.0407 21.6748C21.0395 21.6697 21.0389 21.664 21.0376 21.6577C21.0325 21.6344 21.0269 21.6105 21.0212 21.5872C21.0142 21.5639 21.0054 21.5406 20.9966 21.5185L20.9947 21.5142C20.9859 21.4914 20.9752 21.4682 20.9639 21.4461L20.9268 21.3643V21.5463H20.9664C20.9412 21.6244 20.9268 21.7082 20.9268 21.7944C20.9268 21.9046 20.9494 22.0092 20.9904 22.1043C21.0269 22.0123 21.0527 21.9153 21.0527 21.8102C21.0527 21.7843 21.0508 21.7585 21.0489 21.7321Z" fill="#FCEE2C"/>
    <path d="M25.251 21.6147V21.7942C25.251 21.8912 25.2711 21.9826 25.3026 22.0683C25.3146 22.0173 25.3228 21.9656 25.3228 21.9114C25.3228 21.805 25.295 21.7042 25.251 21.6147Z" fill="#FCEE2C"/>
</svg>