<svg width="20" height="20" viewBox="0 0 20 20" fill="none" xmlns="http://www.w3.org/2000/svg">
<path d="M10.8334 12.5001C10.8334 12.9603 10.4603 13.3334 10 13.3334C9.53978 13.3334 9.16669 12.9603 9.16669 12.5001C9.16669 12.0398 9.53978 11.6667 10 11.6667C10.4603 11.6667 10.8334 12.0398 10.8334 12.5001Z" stroke="black" stroke-width="2"/>
<path d="M11.8334 7.5C13.719 7.5 14.6618 7.5 15.2476 8.08579C15.8334 8.67157 15.8334 9.61438 15.8334 11.5L15.8334 12.5L15.8334 13.5C15.8334 15.3856 15.8334 16.3284 15.2476 16.9142C14.6618 17.5 13.719 17.5 11.8334 17.5L10 17.5L8.16671 17.5C6.28109 17.5 5.33828 17.5 4.75249 16.9142C4.16671 16.3284 4.16671 15.3856 4.16671 13.5L4.16671 12.5L4.16671 11.5C4.16671 9.61438 4.16671 8.67157 4.75249 8.08579C5.33828 7.5 6.28109 7.5 8.16671 7.5L10 7.5L11.8334 7.5Z" stroke="black" stroke-width="2" stroke-linejoin="round"/>
<path d="M7.5 7.5V4.5C7.5 3.39543 8.39543 2.5 9.5 2.5H10.8854C11.7771 2.5 12.5 3.22287 12.5 4.11458V4.11458V4.16667" stroke="black" stroke-width="2" stroke-linecap="round" stroke-linejoin="round"/>
</svg>
