<svg width="84" height="28" viewBox="0 0 84 28" fill="none" xmlns="http://www.w3.org/2000/svg">
<g clip-path="url(#clip0_2_281)">
<path d="M23.6112 11.7261C24.9234 10.4155 25.6394 8.67007 25.6265 6.81443C25.6136 4.95853 24.8722 3.224 23.5413 1.93007C20.8982 -0.641582 16.5938 -0.641582 13.8846 2.00152L5.59374 11.961L4.0097 10.8543C3.19463 10.2835 2.59441 9.58598 2.27137 8.83526C1.46009 6.94643 1.90602 4.71277 3.38364 3.2772C5.2707 1.43803 8.46435 1.43803 10.3514 3.2772L11.6618 1.93006C9.01872 -0.643355 4.71633 -0.643355 2.07324 1.93007C-0.95244 4.87568 -0.513107 9.97819 2.93037 12.3943L4.38595 13.4113L2.00331 16.2745C0.977691 17.511 0.216836 18.7185 0.0402426 20.3573C-0.186518 22.4632 0.552292 24.5938 2.07324 26.0727C3.39479 27.3575 5.13109 28.0018 6.8674 28C6.90718 28 6.9462 27.9896 6.98598 27.9888H18.7469C20.5678 27.9888 22.2712 27.3078 23.5413 26.0727C24.874 24.7767 25.6156 23.0386 25.6265 21.1718C25.6265 17.4127 22.5687 14.3546 18.8095 14.3546H15.7772V16.2343H18.8095C21.5314 16.2343 23.747 18.4497 23.747 21.1663C23.7397 22.519 23.2 23.782 22.2309 24.7253C21.313 25.6174 20.0758 26.1094 18.7469 26.1094C18.7469 26.1094 11.6157 26.1094 11.6618 26.0727C13.692 24.1012 14.3049 21.0266 13.1909 18.4259C12.732 17.3557 11.9061 16.381 10.8047 15.6064L7.13546 13.0404L15.2614 3.2772C17.152 1.43803 20.3439 1.44183 22.2309 3.2772C23.2 4.21896 23.7377 5.47818 23.747 6.82709C23.7562 8.17626 23.2368 9.4446 22.2821 10.3973L23.6112 11.7261ZM9.72535 17.1464C10.5404 17.7192 11.1424 18.4185 11.4619 19.1675C12.2732 21.0581 11.827 23.2917 10.3514 24.7253C8.46436 26.5609 5.2707 26.5609 3.38364 24.7253C2.41452 23.7838 1.87663 22.5228 1.86751 21.1754C1.85839 19.8262 2.37778 18.5579 3.38922 17.5411L5.92767 14.4904L9.72535 17.1464Z" fill="#B0B8C2"/>
<path d="M34.0943 10.2551C34.0919 11.0176 33.9743 11.7246 33.7416 12.3729C33.5098 13.0211 33.1563 13.5844 32.6811 14.0628C32.2059 14.5429 31.6206 14.9005 30.9233 15.1389L30.0971 13.8996C30.7111 13.702 31.2213 13.4179 31.6271 13.0472C32.0329 12.6782 32.3325 12.2553 32.526 11.7785C32.7195 11.3017 32.8183 10.7939 32.8207 10.2551V9.2525H34.0943L34.0943 10.2551ZM35.7517 15.454C36.537 15.454 37.2171 15.5389 37.7911 15.7088C38.365 15.8802 38.8042 16.1268 39.1096 16.4501C39.4149 16.7717 39.5684 17.1587 39.5684 17.6094C39.5684 18.06 39.4149 18.447 39.1096 18.7703C38.8042 19.0953 38.365 19.3402 37.7911 19.5067C37.2171 19.6733 36.537 19.7549 35.7517 19.7517C34.9654 19.7549 34.287 19.6717 33.7163 19.5018C33.1448 19.3337 32.7072 19.0871 32.4011 18.7671C32.0957 18.4454 31.9447 18.06 31.9471 17.6094C31.9447 17.1587 32.0965 16.7717 32.4035 16.4501C32.7105 16.1268 33.1497 15.8802 33.7204 15.7088C34.2911 15.5389 34.9679 15.454 35.7517 15.454ZM34.3874 10.1816C34.3841 10.6992 34.4723 11.1792 34.6519 11.6234C34.8307 12.0675 35.1108 12.4627 35.4912 12.8056C35.8708 13.1468 36.3493 13.4081 36.9257 13.5861L36.0994 14.7993C35.4316 14.569 34.8781 14.2327 34.4388 13.7853C33.9996 13.3395 33.6747 12.8137 33.4624 12.2063C33.2501 11.6005 33.144 10.9245 33.144 10.1816V9.25249H34.3874V10.1816ZM35.7517 16.6574C35.2577 16.6574 34.843 16.6934 34.5074 16.7652C34.1719 16.837 33.9188 16.9432 33.7482 17.0836C33.5775 17.224 33.4926 17.4004 33.4926 17.6094C33.4926 17.8135 33.5775 17.9849 33.7482 18.1254C33.9188 18.2658 34.1727 18.3719 34.5099 18.4421C34.8471 18.5123 35.261 18.545 35.7517 18.5434C36.2415 18.545 36.6562 18.5123 36.9951 18.4421C37.3331 18.3719 37.5894 18.2658 37.7633 18.1254C37.9364 17.9849 38.0246 17.8135 38.0278 17.6094C38.0246 17.4004 37.9364 17.224 37.7633 17.0836C37.5894 16.9432 37.3339 16.837 36.9967 16.7652C36.6595 16.6934 36.2448 16.6574 35.7517 16.6574ZM38.1993 10.7074V11.9761H35.9109V10.7074H38.1993ZM39.5382 8.6712V15.1699H37.9886V8.6712H39.5382Z" fill="#B0B8C2"/>
<path d="M51.0564 13.6253V14.8761H41.0006V13.6253H51.0564ZM45.966 15.5733C46.7727 15.5733 47.4723 15.6566 48.0659 15.8231C48.6602 15.9897 49.1166 16.2297 49.4366 16.5449C49.7567 16.8584 49.9175 17.2339 49.9208 17.6699C49.9175 18.1026 49.7559 18.4749 49.4342 18.7884C49.1133 19.1003 48.6553 19.3403 48.0602 19.5068C47.4642 19.6734 46.7669 19.755 45.966 19.7518C45.1692 19.755 44.4736 19.6734 43.8793 19.5068C43.2857 19.3403 42.8269 19.1003 42.5028 18.7867C42.1778 18.4716 42.0162 18.0993 42.0162 17.6699C42.0162 17.2339 42.1778 16.8584 42.5003 16.5449C42.8228 16.2297 43.2816 15.9913 43.8752 15.8248C44.4687 15.6599 45.1659 15.5766 45.966 15.5733ZM49.2064 9.17585V10.3923H42.1321V9.17585H49.2064ZM45.966 16.731C45.4558 16.731 45.0214 16.7669 44.6622 16.8388C44.3038 16.9106 44.0319 17.0168 43.8474 17.1555C43.6621 17.2943 43.5707 17.4658 43.5739 17.6699C43.5707 17.8675 43.6621 18.034 43.8474 18.1679C44.0319 18.3034 44.303 18.403 44.6606 18.47C45.0174 18.5353 45.4525 18.5696 45.966 18.5729C46.4796 18.5696 46.9155 18.5353 47.2748 18.47C47.6332 18.403 47.9067 18.3034 48.0961 18.1679C48.2855 18.034 48.3802 17.8675 48.3802 17.6699C48.3802 17.4658 48.2847 17.2943 48.0944 17.1555C47.9034 17.0168 47.6291 16.9106 47.2699 16.8388C46.9115 16.7669 46.4771 16.731 45.966 16.731ZM46.3065 11.679V13.965H44.77V11.679H46.3065ZM49.8645 10.0837V10.1604C49.8645 10.5311 49.8587 10.8544 49.8473 11.1336C49.8359 11.4112 49.8073 11.7133 49.7616 12.0415C49.7159 12.368 49.644 12.7028 49.546 13.044L48.0234 12.8971C48.1091 12.5477 48.1728 12.2178 48.2145 11.9092C48.2561 11.6022 48.2822 11.323 48.292 11.0732C48.3018 10.8234 48.3075 10.505 48.3075 10.118V9.17584H49.8645L49.8645 10.0837Z" fill="#B0B8C2"/>
<path d="M56.4691 9.82562V16.9677H52.0629V9.82562H56.4691ZM53.5177 11.047V15.7496H55.0191V11.047H53.5177ZM58.8661 8.84428V19.2439H57.399V8.84428H58.8661ZM60.3553 12.9052V14.1706H58.4791V12.9052H60.3553ZM61.3489 8.6712V19.7566H59.8646V8.6712H61.3489Z" fill="#B0B8C2"/>
<path d="M64.6578 9.73418V16.6101H63.1213V9.73418H64.6578ZM64.0986 15.699C64.9672 15.699 65.8465 15.6598 66.7356 15.583C67.6255 15.5046 68.5089 15.3822 69.3865 15.2124L69.58 16.4941C68.6624 16.6836 67.7504 16.8191 66.8458 16.9007C65.9404 16.9824 65.0244 17.0232 64.0986 17.0199H63.1213V15.699H64.0986ZM71.8391 8.6712V19.7566H70.2944V8.6712H71.8391Z" fill="#B0B8C2"/>
<path d="M76.2795 9.45497C76.8421 9.45497 77.3442 9.61662 77.7858 9.93829C78.2275 10.2616 78.5729 10.7221 78.8227 11.318C79.0725 11.914 79.1983 12.608 79.2015 13.3966C79.1983 14.1935 79.0725 14.8923 78.8227 15.4899C78.5729 16.0876 78.2275 16.548 77.7858 16.8713C77.3442 17.1946 76.8421 17.3547 76.2795 17.3547C75.717 17.3547 75.2149 17.1946 74.7716 16.8713C74.3283 16.548 73.9813 16.0876 73.7299 15.4899C73.4792 14.8923 73.3551 14.1935 73.3576 13.3966C73.3551 12.608 73.4792 11.914 73.7299 11.318C73.9813 10.7221 74.3283 10.2616 74.7716 9.93829C75.2149 9.61662 75.717 9.45497 76.2795 9.45497ZM76.2795 10.8576C75.9987 10.8576 75.7505 10.9556 75.535 11.1531C75.3203 11.3491 75.1537 11.6381 75.0361 12.0202C74.9186 12.4006 74.8598 12.8594 74.8598 13.3966C74.8598 13.9388 74.9186 14.4008 75.0361 14.7813C75.1537 15.1634 75.3194 15.454 75.5333 15.6516C75.7464 15.8492 75.9954 15.9488 76.2795 15.9488C76.5718 15.9488 76.8249 15.8492 77.0388 15.6516C77.2527 15.454 77.4185 15.165 77.536 14.7846C77.6536 14.4041 77.7124 13.942 77.7124 13.3966C77.7124 12.8578 77.6536 12.3974 77.536 12.0169C77.4185 11.6381 77.2519 11.3491 77.0372 11.1531C76.8217 10.9556 76.5694 10.8576 76.2795 10.8576ZM82.0369 8.6712V19.7566H80.4833V8.6712H82.0369ZM83.6722 12.8545V14.1494H81.6924V12.8545H83.6722Z" fill="#B0B8C2"/>
</g>
<defs>
<clipPath id="clip0_2_281">
<rect width="83.6723" height="28" fill="white"/>
</clipPath>
</defs>
</svg>
