<svg xmlns="http://www.w3.org/2000/svg" width="120" height="40" viewBox="0 0 120 40" fill="none">
    <g clip-path="url(#clip0_193_5168)">
        <path d="M33.7772 16.7516C35.6518 14.8793 36.6746 12.3858 36.6562 9.73489C36.6377 7.08362 35.5786 4.60571 33.6773 2.75724C29.9015 -0.916546 23.7523 -0.916546 19.882 2.85931L8.03793 17.0872L5.77502 15.5062C4.61063 14.6907 3.75317 13.6943 3.29169 12.6218C2.13272 9.92346 2.76975 6.73252 4.88064 4.68172C7.57644 2.05433 12.1388 2.05433 14.8346 4.68172L16.7066 2.75724C12.9308 -0.919079 6.7845 -0.919079 3.00864 2.75724C-1.31375 6.96526 -0.686135 14.2545 4.23312 17.7061L6.31251 19.159L2.90875 23.2493C1.44358 25.0157 0.35664 26.7407 0.104364 29.0818C-0.21958 32.0903 0.835863 35.1339 3.00864 37.2467C4.89657 39.0821 7.37701 40.0025 9.85745 40C9.91427 40 9.97001 39.9852 10.0268 39.9841H26.8282C29.4295 39.9841 31.8629 39.0112 33.6773 37.2467C35.5812 35.3953 36.6406 32.9123 36.6562 30.2455C36.6562 24.8752 32.2878 20.5065 26.9176 20.5065H22.5858V23.1918H26.9176C30.806 23.1918 33.9712 26.3567 33.9712 30.2375C33.9607 32.17 33.1898 33.9743 31.8053 35.3218C30.494 36.5962 28.7266 37.2991 26.8282 37.2991C26.8282 37.2991 16.6407 37.2991 16.7066 37.2467C19.6069 34.4303 20.4825 30.0381 18.891 26.3227C18.2355 24.7938 17.0555 23.4014 15.4821 22.2949L10.2404 18.6291L21.8488 4.68172C24.5497 2.05433 29.1095 2.05976 31.8053 4.68172C33.1898 6.02709 33.9578 7.82597 33.9712 9.75299C33.9843 11.6804 33.2423 13.4923 31.8784 14.8532L33.7772 16.7516ZM13.9402 24.4948C15.1046 25.3132 15.9646 26.3122 16.421 27.3821C17.58 30.083 16.9426 33.2739 14.8346 35.3218C12.1388 37.9441 7.57645 37.9441 4.88065 35.3218C3.49619 33.9768 2.72777 32.1754 2.71474 30.2505C2.70171 28.3232 3.44371 26.5112 4.88861 25.0587L8.51498 20.7005L13.9402 24.4948Z" fill="#004B8B"/>
        <path d="M48.7469 14.6486C48.7434 15.738 48.5754 16.748 48.2431 17.6741C47.9118 18.6001 47.4068 19.4049 46.728 20.0883C46.0492 20.7741 45.213 21.285 44.2169 21.6255L43.0366 19.8551C43.9137 19.5728 44.6426 19.1669 45.2223 18.6374C45.802 18.1103 46.23 17.5061 46.5064 16.825C46.7828 16.1439 46.924 15.4184 46.9275 14.6486V13.2164H48.7469L48.7469 14.6486ZM51.1145 22.0757C52.2365 22.0757 53.2081 22.197 54.028 22.4396C54.8479 22.6846 55.4754 23.0368 55.9116 23.4986C56.3478 23.9582 56.567 24.511 56.567 25.1548C56.567 25.7986 56.3478 26.3514 55.9116 26.8133C55.4754 27.2775 54.8479 27.6274 54.028 27.8653C53.2081 28.1033 52.2365 28.2199 51.1145 28.2152C49.9914 28.2199 49.0222 28.1009 48.2069 27.8583C47.3905 27.6181 46.7653 27.2658 46.328 26.8086C45.8918 26.3491 45.676 25.7986 45.6795 25.1548C45.676 24.511 45.8929 23.9582 46.3315 23.4986C46.77 23.0368 47.3975 22.6845 48.2127 22.4396C49.028 22.197 49.9949 22.0757 51.1145 22.0757ZM49.1656 14.5437C49.1609 15.2831 49.2869 15.9689 49.5435 16.6034C49.7989 17.2379 50.199 17.8024 50.7425 18.2922C51.2848 18.7797 51.9683 19.1529 52.7917 19.4072L51.6114 21.1403C50.6573 20.8114 49.8666 20.3309 49.2391 19.6918C48.6116 19.055 48.1474 18.3039 47.8442 17.4361C47.5409 16.5707 47.3893 15.605 47.3893 14.5437V13.2164H49.1656V14.5437ZM51.1145 23.7949C50.4089 23.7949 49.8164 23.8462 49.3371 23.9488C48.8577 24.0515 48.4961 24.2031 48.2524 24.4037C48.0086 24.6043 47.8873 24.8562 47.8873 25.1548C47.8873 25.4464 48.0086 25.6913 48.2524 25.8919C48.4961 26.0925 48.8589 26.2441 49.3406 26.3444C49.8222 26.4448 50.4136 26.4914 51.1145 26.4891C51.8143 26.4914 52.4068 26.4448 52.8908 26.3444C53.3737 26.2441 53.7399 26.0925 53.9883 25.8919C54.2356 25.6913 54.3615 25.4464 54.3662 25.1548C54.3615 24.8562 54.2356 24.6043 53.9883 24.4037C53.7399 24.2031 53.3748 24.0515 52.8932 23.9488C52.4115 23.8462 51.819 23.7949 51.1145 23.7949ZM54.6111 15.2948V17.1072H51.342V15.2948H54.6111ZM56.5239 12.386V21.6699H54.3102V12.386H56.5239Z" fill="#004B8B"/>
        <path d="M72.9773 19.4651V21.2519H58.6118V19.4651H72.9773ZM65.7054 22.2479C66.8577 22.2479 67.8572 22.3669 68.7051 22.6048C69.5542 22.8427 70.2062 23.1856 70.6634 23.6358C71.1206 24.0837 71.3503 24.6202 71.355 25.243C71.3503 25.8611 71.1194 26.393 70.6599 26.8408C70.2015 27.2864 69.5472 27.6293 68.6969 27.8672C67.8455 28.1051 66.8495 28.2218 65.7054 28.2171C64.567 28.2218 63.5733 28.1051 62.7242 27.8672C61.8763 27.6293 61.2209 27.2864 60.7578 26.8385C60.2936 26.3883 60.0627 25.8565 60.0627 25.243C60.0627 24.6202 60.2936 24.0837 60.7543 23.6358C61.215 23.1856 61.8705 22.845 62.7184 22.6071C63.5663 22.3715 64.5624 22.2526 65.7054 22.2479ZM70.3345 13.1086V14.8465H60.2283V13.1086H70.3345ZM65.7054 23.9017C64.9764 23.9017 64.3559 23.9531 63.8427 24.0557C63.3307 24.1583 62.9423 24.3099 62.6788 24.5082C62.414 24.7065 62.2834 24.9514 62.288 25.243C62.2834 25.5252 62.414 25.7632 62.6788 25.9545C62.9423 26.1481 63.3296 26.2904 63.8404 26.386C64.3501 26.4793 64.9717 26.5283 65.7053 26.5329C66.439 26.5283 67.0618 26.4793 67.575 26.386C68.087 26.2904 68.4777 26.1481 68.7483 25.9545C69.0189 25.7632 69.1541 25.5252 69.1541 25.243C69.1541 24.9514 69.0177 24.7065 68.7459 24.5082C68.473 24.3099 68.0811 24.1583 67.568 24.0557C67.0559 23.9531 66.4355 23.9017 65.7054 23.9017ZM66.1917 16.6846V19.9503H63.9967V16.6846H66.1917ZM71.2745 14.4056V14.5152C71.2745 15.0447 71.2663 15.5066 71.25 15.9055C71.2337 16.302 71.1929 16.7336 71.1276 17.2024C71.0622 17.6689 70.9596 18.1471 70.8196 18.6346L68.6445 18.4247C68.7669 17.9255 68.8579 17.4543 68.9174 17.0135C68.9769 16.5749 69.0142 16.1761 69.0282 15.8192C69.0422 15.4623 69.0503 15.0074 69.0503 14.4546V13.1086H71.2745L71.2745 14.4056Z" fill="#004B8B"/>
        <path d="M80.716 14.0337V24.2366H74.4214V14.0337H80.716ZM76.4998 15.7785V22.4965H78.6446V15.7785H76.4998ZM84.1403 12.6318V27.4883H82.0444V12.6318H84.1403ZM86.2677 18.433V20.2408H83.5875V18.433H86.2677ZM87.6871 12.3845V28.2208H85.5667V12.3845H87.6871Z" fill="#004B8B"/>
        <path d="M92.4084 13.9045V23.7272H90.2134V13.9045H92.4084ZM91.6095 22.4256C92.8504 22.4256 94.1065 22.3696 95.3767 22.26C96.6479 22.148 97.9099 21.9731 99.1637 21.7305L99.4401 23.5616C98.1292 23.8322 96.8264 24.0258 95.5341 24.1424C94.2407 24.2591 92.9321 24.3174 91.6095 24.3127H90.2134V22.4256H91.6095ZM102.667 12.386V28.2222H100.461V12.386H102.667Z" fill="#004B8B"/>
        <path d="M109.016 13.5056C109.819 13.5056 110.536 13.7366 111.167 14.1961C111.798 14.658 112.292 15.3158 112.649 16.1672C113.006 17.0186 113.185 18.01 113.19 19.1366C113.185 20.2749 113.006 21.2733 112.649 22.1271C112.292 22.9808 111.798 23.6386 111.167 24.1005C110.536 24.5623 109.819 24.7909 109.016 24.7909C108.212 24.7909 107.495 24.5623 106.861 24.1005C106.228 23.6386 105.732 22.9808 105.373 22.1271C105.015 21.2733 104.838 20.2749 104.841 19.1366C104.838 18.01 105.015 17.0186 105.373 16.1672C105.732 15.3158 106.228 14.658 106.861 14.1961C107.495 13.7366 108.212 13.5056 109.016 13.5056ZM109.016 15.5094C108.614 15.5094 108.26 15.6493 107.952 15.9316C107.645 16.2115 107.407 16.6244 107.239 17.1702C107.071 17.7137 106.987 18.3692 106.987 19.1366C106.987 19.9111 107.071 20.5712 107.239 21.1147C107.407 21.6605 107.644 22.0757 107.95 22.358C108.254 22.6402 108.61 22.7825 109.016 22.7825C109.433 22.7825 109.795 22.6402 110.1 22.358C110.406 22.0757 110.643 21.6629 110.811 21.1194C110.979 20.5759 111.062 19.9157 111.062 19.1366C111.062 18.3669 110.979 17.7091 110.811 17.1656C110.643 16.6244 110.405 16.2115 110.098 15.9316C109.79 15.6493 109.43 15.5094 109.016 15.5094ZM117.24 12.386V28.2222H115.021V12.386H117.24ZM119.577 18.3622V20.212H116.748V18.3622H119.577Z" fill="#004B8B"/>
    </g>
    <defs>
        <clipPath id="clip0_193_5168">
            <rect width="119.532" height="40" fill="white" transform="translate(0.046875)"/>
        </clipPath>
    </defs>
</svg>