<svg xmlns="http://www.w3.org/2000/svg" width="17" height="16" viewBox="0 0 17 16" fill="none">
    <path d="M6.08689 5.90224C6.5509 6.86865 7.18343 7.77441 7.98449 8.57546C8.78555 9.37651 9.69132 10.009 10.6577 10.473C10.7409 10.5129 10.7824 10.5329 10.835 10.5482C11.0219 10.6027 11.2514 10.5636 11.4097 10.4502C11.4543 10.4183 11.4924 10.3802 11.5686 10.304C11.8017 10.071 11.9182 9.95443 12.0354 9.87824C12.4773 9.59091 13.047 9.59091 13.489 9.87824C13.6062 9.95443 13.7227 10.071 13.9558 10.304L14.0857 10.434C14.44 10.7882 14.6171 10.9654 14.7134 11.1556C14.9047 11.534 14.9047 11.9809 14.7134 12.3592C14.6171 12.5495 14.44 12.7266 14.0857 13.0809L13.9806 13.186C13.6275 13.5391 13.451 13.7156 13.2109 13.8505C12.9446 14.0001 12.5309 14.1077 12.2255 14.1068C11.9502 14.1059 11.762 14.0525 11.3857 13.9457C9.36341 13.3718 7.45515 12.2888 5.86315 10.6968C4.27114 9.1048 3.18815 7.19655 2.61416 5.17429C2.50735 4.79799 2.45395 4.60984 2.45313 4.33455C2.45222 4.02906 2.5598 3.6154 2.70941 3.34907C2.84425 3.10905 3.02079 2.9325 3.37388 2.57942L3.47897 2.47433C3.83327 2.12004 4.01041 1.94289 4.20067 1.84666C4.57905 1.65528 5.0259 1.65528 5.40428 1.84666C5.59453 1.94289 5.77168 2.12004 6.12598 2.47433L6.25589 2.60425C6.48897 2.83732 6.6055 2.95385 6.6817 3.07104C6.96903 3.51296 6.96903 4.08268 6.6817 4.52461C6.6055 4.6418 6.48897 4.75833 6.2559 4.9914C6.17969 5.06761 6.14158 5.10572 6.10969 5.15026C5.99635 5.30854 5.95721 5.53805 6.01169 5.72495C6.02702 5.77755 6.04698 5.81911 6.08689 5.90224Z" stroke="black" stroke-linecap="round" stroke-linejoin="round"/>
</svg>