<svg width="40" height="40" viewBox="0 0 40 40" fill="none" xmlns="http://www.w3.org/2000/svg">
<g clip-path="url(#clip0_2241_5915)">
<rect x="0.5" y="8.5" width="25" height="20" rx="1.5" fill="#FEFEFE" stroke="#232527"/>
<path d="M25.5 16C25.5 15.1716 26.1716 14.5 27 14.5H33.672C34.2756 14.5 34.8203 14.8617 35.0545 15.4179L38.3825 23.3218C38.46 23.5061 38.5 23.704 38.5 23.9039V27C38.5 27.8284 37.8284 28.5 37 28.5H27C26.1716 28.5 25.5 27.8284 25.5 27V16Z" fill="#FEFEFE" stroke="#232527"/>
<path d="M29.5 18C29.5 17.7239 29.7239 17.5 30 17.5H32.382C32.5714 17.5 32.7445 17.607 32.8292 17.7764L34.8292 21.7764C34.9954 22.1088 34.7537 22.5 34.382 22.5H30C29.7239 22.5 29.5 22.2761 29.5 22V18Z" stroke="#232527"/>
<rect x="36.5" y="24.5" width="2" height="2" rx="0.5" stroke="#232527"/>
<rect x="0.5" y="24.5" width="2" height="2" rx="0.5" stroke="#232527"/>
<circle cx="32" cy="29" r="3.5" fill="#FEFEFE" stroke="#232527"/>
<circle cx="32" cy="29" r="1.5" stroke="#232527"/>
<circle cx="8" cy="29" r="3.5" fill="#FEFEFE" stroke="#232527"/>
<circle cx="8" cy="29" r="1.5" stroke="#232527"/>
<circle cx="18" cy="29" r="3.5" fill="#FEFEFE" stroke="#232527"/>
<circle cx="18" cy="29" r="1.5" stroke="#232527"/>
<rect x="7.51074" y="13.6021" width="11" height="9" rx="1.5" stroke="#232527"/>
<path d="M10.0107 13.6021H9.51074V14.1021V16.6021C9.51074 17.1543 9.95846 17.6021 10.5107 17.6021C11.063 17.6021 11.5107 17.1543 11.5107 16.6021V14.1021V13.6021H11.0107H10.0107Z" stroke="#232527"/>
</g>
<defs>
<clipPath id="clip0_2241_5915">
<rect width="40" height="40" fill="white"/>
</clipPath>
</defs>
</svg>
