<svg width="40" height="40" viewBox="0 0 40 40" fill="none" xmlns="http://www.w3.org/2000/svg">
    <rect x="11.5" y="5.5" width="17" height="15" rx="1.5" stroke="#232527"/>
    <path d="M15 5.5H14.5V6V10C14.5 10.8284 15.1716 11.5 16 11.5C16.8284 11.5 17.5 10.8284 17.5 10V6V5.5H17H15Z" stroke="#232527"/>
    <rect x="11.5" y="5.5" width="17" height="15" rx="1.5" fill="#FEFEFE" stroke="#232527"/>
    <path d="M15 5.5H14.5V6V10C14.5 10.8284 15.1716 11.5 16 11.5C16.8284 11.5 17.5 10.8284 17.5 10V6V5.5H17H15Z" stroke="#232527"/>
    <rect x="19.5" y="20.5" width="17" height="15" rx="1.5" fill="#FEFEFE" stroke="#232527"/>
    <path d="M23 20.5H22.5V21V25C22.5 25.8284 23.1716 26.5 24 26.5C24.8284 26.5 25.5 25.8284 25.5 25V21V20.5H25H23Z" stroke="#232527"/>
    <rect x="3.5" y="20.5" width="17" height="15" rx="1.5" fill="#FEFEFE" stroke="#232527"/>
    <path d="M7 20.5H6.5V21V25C6.5 25.8284 7.17157 26.5 8 26.5C8.82843 26.5 9.5 25.8284 9.5 25V21V20.5H9H7Z" stroke="#232527"/>
</svg>
