<svg width="16" height="21" viewBox="0 0 16 21" fill="none" xmlns="http://www.w3.org/2000/svg">
<path d="M4.66602 11.6035H6.42969L7.18164 12.5674C7.65332 12.0205 7.92676 11.1797 7.91992 10.0859C7.92676 7.9668 6.91504 6.8252 5.39062 6.81836C3.85254 6.8252 2.84766 7.9668 2.84766 10.0859C2.84766 12.1982 3.85254 13.3467 5.39062 13.3535C5.58887 13.3535 5.78027 13.333 5.95801 13.292L4.66602 11.6035ZM0.755859 10.0859C0.755859 6.85254 2.75195 5 5.39062 5C8.00879 5 10.0117 6.85254 10.0117 10.0859C10.0117 11.8564 9.41016 13.21 8.43945 14.0781L9.84766 15.8555H7.91992L7.12695 14.8711C6.59375 15.0693 6.00586 15.1719 5.39062 15.1719C2.75195 15.1719 0.755859 13.3057 0.755859 10.0859Z" fill="#004B8B"/>
</svg>
