<svg width="20" height="20" viewBox="0 0 20 20" fill="none" xmlns="http://www.w3.org/2000/svg">
<path d="M8.75123 11.2501L17.5012 2.50014M8.85755 11.5235L11.0476 17.1552C11.2406 17.6513 11.337 17.8994 11.476 17.9718C11.5965 18.0346 11.7401 18.0347 11.8607 17.972C11.9997 17.8998 12.0965 17.6518 12.29 17.1559L17.782 3.08281C17.9567 2.63516 18.044 2.41133 17.9962 2.26831C17.9547 2.1441 17.8573 2.04663 17.7331 2.00514C17.59 1.95736 17.3662 2.0447 16.9186 2.21939L2.84544 7.71134C2.34955 7.90486 2.1016 8.00163 2.02934 8.14071C1.9667 8.26129 1.96679 8.40483 2.02957 8.52533C2.10199 8.66433 2.35005 8.7608 2.84617 8.95373L8.47784 11.1438C8.57855 11.183 8.6289 11.2026 8.6713 11.2328C8.70888 11.2596 8.74175 11.2925 8.76856 11.3301C8.7988 11.3725 8.81838 11.4228 8.85755 11.5235Z" stroke="#004B8B" stroke-width="1.5" stroke-linecap="round" stroke-linejoin="round"/>
</svg>
