<svg width="24" height="24" viewBox="0 0 24 24" fill="none" xmlns="http://www.w3.org/2000/svg">
<path d="M15.639 12.7625C17.072 11.666 18 9.9435 18 8C18 4.6865 15.3135 2 12 2C8.6865 2 6 4.6865 6 8C6 9.9435 6.928 11.666 8.361 12.7625C4.92 14.2655 2.5 17.8325 2.5 22H21.5C21.5 17.8325 19.08 14.2655 15.639 12.7625ZM8 8C8 5.7945 9.7945 4 12 4C14.2055 4 16 5.7945 16 8C16 10.2055 14.2055 12 12 12C9.7945 12 8 10.2055 8 8ZM12 14C15.4885 14 18.428 16.5535 19.2625 20H4.7375C5.572 16.5535 8.5115 14 12 14Z" fill="#5BB9E2"/>
</svg>
