<svg width="16" height="16" viewBox="0 0 16 16" fill="none" xmlns="http://www.w3.org/2000/svg">
<path d="M7.72574 3.34056C8.13964 3.32632 8.46374 2.97919 8.44944 2.56522C8.43524 2.15125 8.08814 1.8272 7.67414 1.84144L7.72574 3.34056ZM3.15837 7.562L2.40873 7.585C2.409 7.5938 2.40942 7.6026 2.41 7.6114L3.15837 7.562ZM1.8782 10.979L2.36781 11.5471C2.38122 11.5356 2.39422 11.5236 2.40678 11.5111L1.8782 10.979ZM1.43945 11.342L1.88001 11.949C1.89239 11.94 1.90449 11.9306 1.9163 11.9209L1.43945 11.342ZM5.74992 13.75C6.16414 13.75 6.49994 13.4142 6.49994 13C6.49994 12.5858 6.16414 12.25 5.74992 12.25V13.75ZM7.72574 1.84144C7.31174 1.8272 6.96464 2.15125 6.95034 2.56522C6.93614 2.97919 7.26014 3.32632 7.67414 3.34056L7.72574 1.84144ZM12.2414 7.562L12.9898 7.6113C12.9904 7.6025 12.9908 7.5938 12.9911 7.585L12.2414 7.562ZM13.5216 10.978L12.993 11.5101C13.0056 11.5225 13.0186 11.5346 13.032 11.5461L13.5216 10.978ZM13.9604 11.341L13.4835 11.9199C13.4951 11.9294 13.5069 11.9386 13.519 11.9474L13.9604 11.341ZM9.64994 12.25C9.23574 12.25 8.89994 12.5858 8.89994 13C8.89994 13.4142 9.23574 13.75 9.64994 13.75V12.25ZM6.94994 2.591C6.94994 3.00521 7.28574 3.341 7.69994 3.341C8.11414 3.341 8.44994 3.00521 8.44994 2.591H6.94994ZM8.44994 1C8.44994 0.58579 8.11414 0.25 7.69994 0.25C7.28574 0.25 6.94994 0.58579 6.94994 1H8.44994ZM5.74992 12.25C5.33571 12.25 4.99992 12.5858 4.99992 13C4.99992 13.4142 5.33571 13.75 5.74992 13.75V12.25ZM9.64994 13.75C10.0641 13.75 10.3999 13.4142 10.3999 13C10.3999 12.5858 10.0641 12.25 9.64994 12.25V13.75ZM6.49994 13C6.49994 12.5858 6.16414 12.25 5.74992 12.25C5.33571 12.25 4.99992 12.5858 4.99992 13H6.49994ZM10.3999 13C10.3999 12.5858 10.0641 12.25 9.64994 12.25C9.23574 12.25 8.89994 12.5858 8.89994 13H10.3999ZM7.67414 1.84144C4.6523 1.94538 2.31503 4.53201 2.40873 7.585L3.90802 7.539C3.83857 5.27613 5.56492 3.41488 7.72574 3.34056L7.67414 1.84144ZM2.41 7.6114C2.48023 8.6748 2.08961 9.7118 1.34962 10.4469L2.40678 11.5111C3.45915 10.4656 4.00515 9.0026 3.90674 7.5126L2.41 7.6114ZM1.38859 10.4109C1.2319 10.5459 1.1002 10.6498 0.962592 10.7631L1.9163 11.9209C2.02634 11.8302 2.19494 11.6961 2.36781 11.5471L1.38859 10.4109ZM0.998892 10.735C0.779632 10.8942 0.580392 11.1216 0.431872 11.3617C0.285192 11.5987 0.144852 11.9178 0.126872 12.2708C0.107202 12.6569 0.240202 13.0863 0.635312 13.3884C0.988792 13.6588 1.45458 13.75 1.94742 13.75V12.25C1.78409 12.25 1.67605 12.234 1.60977 12.2171C1.54405 12.2004 1.53236 12.1861 1.54652 12.1969C1.56486 12.211 1.59205 12.2408 1.60998 12.2837C1.62626 12.3228 1.62486 12.3484 1.62493 12.3472C1.62507 12.3443 1.62706 12.3233 1.64134 12.2839C1.65529 12.2454 1.67727 12.1997 1.70743 12.151C1.73742 12.1025 1.77153 12.0574 1.80532 12.0198C1.84007 11.981 1.86708 11.9583 1.88001 11.949L0.998892 10.735ZM1.94742 13.75H5.74992V12.25H1.94742V13.75ZM7.67414 3.34056C9.83494 3.41488 11.5612 5.27613 11.4918 7.539L12.9911 7.585C13.0848 4.53201 10.7475 1.94538 7.72574 1.84144L7.67414 3.34056ZM11.4931 7.5127C11.395 9.0024 11.941 10.4649 12.993 11.5101L14.0502 10.4459C13.3104 9.711 12.9198 8.6744 12.9898 7.6113L11.4931 7.5127ZM13.032 11.5461C13.2049 11.6951 13.3735 11.8292 13.4835 11.9199L14.4372 10.7621C14.2996 10.6488 14.1679 10.5449 14.0112 10.4099L13.032 11.5461ZM13.519 11.9474C13.5324 11.9571 13.5598 11.9802 13.5948 12.0193C13.6289 12.0573 13.6633 12.1026 13.6936 12.1514C13.724 12.2004 13.7462 12.2463 13.7603 12.285C13.7747 12.3246 13.7768 12.3457 13.7769 12.3485C13.777 12.3497 13.7755 12.3238 13.7919 12.2844C13.8099 12.241 13.8374 12.211 13.8559 12.1968C13.8701 12.1859 13.8584 12.2002 13.7924 12.217C13.7258 12.234 13.6173 12.25 13.4534 12.25V13.75C13.9467 13.75 14.4131 13.6589 14.7668 13.3885C15.1627 13.0859 15.2953 12.6557 15.2748 12.2693C15.2561 11.9161 15.115 11.5972 14.9681 11.3604C14.8193 11.1206 14.6201 10.8936 14.4017 10.7346L13.519 11.9474ZM13.4534 12.25H9.64994V13.75H13.4534V12.25ZM8.44994 2.591V1H6.94994V2.591H8.44994ZM5.74992 13.75H9.64994V12.25H5.74992V13.75ZM4.99992 13C4.99992 14.5008 6.19094 15.75 7.69994 15.75V14.25C7.05494 14.25 6.49994 13.7084 6.49994 13H4.99992ZM7.69994 15.75C9.20884 15.75 10.3999 14.5008 10.3999 13H8.89994C8.89994 13.7084 8.34484 14.25 7.69994 14.25V15.75Z" fill="#5BB9E2"/>
</svg>
