<svg width="40" height="40" viewBox="0 0 40 40" fill="none" xmlns="http://www.w3.org/2000/svg">
<g id="free-icon-delivery-courier-9448182">
<path id="Vector" d="M10.6213 17.5C10.9651 17.5 11.2463 17.2188 11.2463 16.875C11.2463 16.5312 10.9651 16.25 10.6213 16.25H8.74634C8.40259 16.25 8.12134 16.5312 8.12134 16.875C8.12134 17.2188 8.40259 17.5 8.74634 17.5H10.6213Z" fill="#232527"/>
<path id="Vector_2" d="M18.1213 16.875C18.4651 16.875 18.7463 16.5938 18.7463 16.25C18.7463 15.9062 18.4651 15.625 18.1213 15.625H16.2463C15.9026 15.625 15.6213 15.9062 15.6213 16.25C15.6213 16.5938 15.9026 16.875 16.2463 16.875H18.1213Z" fill="#232527"/>
<rect id="Rectangle 12" x="6.5" y="11.5" width="19" height="15" rx="1.5" fill="#FEFEFE" stroke="#232527"/>
<rect id="Rectangle 14" x="6.5" y="18.5" width="19" height="8" rx="1.5" fill="#FEFEFE" stroke="#232527"/>
<path id="Rectangle 13" d="M25.5 21.5H37C37.2761 21.5 37.5 21.7239 37.5 22V25C37.5 25.8284 36.8284 26.5 36 26.5H27C26.1716 26.5 25.5 25.8284 25.5 25V21.5Z" fill="#FEFEFE" stroke="#232527"/>
<circle id="Ellipse 8" cx="32" cy="27" r="2.5" fill="#FEFEFE" stroke="#232527"/>
<circle id="Ellipse 9" cx="13" cy="27" r="2.5" fill="#FEFEFE" stroke="#232527"/>
<path id="Rectangle 8" d="M25.5 13.5H32.1931C32.8155 13.5 33.3733 13.8844 33.5949 14.466L36.2745 21.5H25.5V13.5Z" fill="#FEFEFE" stroke="#232527"/>
</g>
</svg>
