<svg width="24" height="24" viewBox="0 0 24 24" fill="none" xmlns="http://www.w3.org/2000/svg">
<path d="M21 5.25H15M21 20H3M21 10.75H15M21 16H3M4.6 12H9.4C9.96005 12 10.2401 12 10.454 11.891C10.6422 11.7951 10.7951 11.6422 10.891 11.454C11 11.2401 11 10.9601 11 10.4V5.6C11 5.03995 11 4.75992 10.891 4.54601C10.7951 4.35785 10.6422 4.20487 10.454 4.10899C10.2401 4 9.96005 4 9.4 4H4.6C4.03995 4 3.75992 4 3.54601 4.10899C3.35785 4.20487 3.20487 4.35785 3.10899 4.54601C3 4.75992 3 5.03995 3 5.6V10.4C3 10.9601 3 11.2401 3.10899 11.454C3.20487 11.6422 3.35785 11.7951 3.54601 11.891C3.75992 12 4.03995 12 4.6 12Z" stroke="#777777" stroke-width="2" stroke-linecap="round" stroke-linejoin="round"/>
</svg>
