<svg width="25" height="24" viewBox="0 0 25 24" fill="none" xmlns="http://www.w3.org/2000/svg">
<mask id="path-1-inside-1_2_328" fill="white">
<path fill-rule="evenodd" clip-rule="evenodd" d="M11.183 4.15238L5.18299 9.40238C4.74896 9.78216 4.5 10.3308 4.5 10.9075V18C4.5 19.1045 5.39543 20 6.5 20H9.5C10.0523 20 10.5 19.5523 10.5 19V14C10.5 13.4477 10.9477 13 11.5 13H13.5C14.0523 13 14.5 13.4477 14.5 14V19C14.5 19.5523 14.9477 20 15.5 20H18.5C19.6046 20 20.5 19.1045 20.5 18V10.9075C20.5 10.3308 20.251 9.78216 19.817 9.40238L13.817 4.15238C13.063 3.49258 11.937 3.49258 11.183 4.15238Z"/>
</mask>
<path d="M5.18299 9.40238L6.5 10.9075L6.5 10.9075L5.18299 9.40238ZM11.183 4.15238L12.5 5.65753L12.5 5.65753L11.183 4.15238ZM19.817 9.40238L18.5 10.9075L19.817 9.40238ZM13.817 4.15238L12.5 5.65753L12.5 5.65753L13.817 4.15238ZM6.5 10.9075L12.5 5.65753L9.86598 2.64723L3.86598 7.89723L6.5 10.9075ZM6.5 10.9075L6.5 10.9075L3.86598 7.89723C2.99792 8.65678 2.5 9.75408 2.5 10.9075H6.5ZM6.5 18V10.9075H2.5V18H6.5ZM6.5 18V18H2.5C2.5 20.2091 4.29086 22 6.5 22V18ZM9.5 18H6.5V22H9.5V18ZM12.5 19V14H8.5V19H12.5ZM12.5 14C12.5 14.5523 12.0523 15 11.5 15V11C9.84315 11 8.5 12.3431 8.5 14H12.5ZM11.5 15H13.5V11H11.5V15ZM13.5 15C12.9477 15 12.5 14.5523 12.5 14H16.5C16.5 12.3431 15.1569 11 13.5 11V15ZM12.5 14V19H16.5V14H12.5ZM18.5 18H15.5V22H18.5V18ZM18.5 18V22C20.7091 22 22.5 20.2091 22.5 18H18.5ZM18.5 10.9075V18H22.5V10.9075H18.5ZM18.5 10.9075V10.9075H22.5C22.5 9.75409 22.0021 8.65678 21.134 7.89723L18.5 10.9075ZM12.5 5.65753L18.5 10.9075L21.134 7.89723L15.134 2.64722L12.5 5.65753ZM12.5 5.65753L12.5 5.65753L15.134 2.64723C13.6259 1.32763 11.3741 1.32764 9.86598 2.64723L12.5 5.65753ZM12.5 19C12.5 20.6568 13.8431 22 15.5 22V18C16.0523 18 16.5 18.4477 16.5 19H12.5ZM9.5 22C11.1569 22 12.5 20.6568 12.5 19H8.5C8.5 18.4477 8.94772 18 9.5 18V22Z" fill="#004B8B" mask="url(#path-1-inside-1_2_328)"/>
</svg>
