<svg width="25" height="24" viewBox="0 0 25 24" fill="none" xmlns="http://www.w3.org/2000/svg">
<path d="M21.7668 10.4336H20.1001V20.4336H21.7668V10.4336Z" fill="#777777"/>
<path d="M5.10026 10.4336H3.43359V20.4336H5.10026V10.4336Z" fill="#777777"/>
<path d="M9.26656 15.4334C9.7268 15.4334 10.0999 15.0603 10.0999 14.6001C10.0999 14.1399 9.7268 13.7668 9.26656 13.7668C8.80632 13.7668 8.43323 14.1399 8.43323 14.6001C8.43323 15.0603 8.80632 15.4334 9.26656 15.4334Z" fill="#777777"/>
<path d="M9.26656 13.7668C8.80823 13.7668 8.43323 14.1418 8.43323 14.6001C8.43323 15.0584 8.80823 15.4334 9.26656 15.4334C9.72489 15.4334 10.0999 15.0584 10.0999 14.6001C10.0999 14.1418 9.72489 13.7668 9.26656 13.7668Z" fill="#777777"/>
<path d="M12.5999 10.7001C12.3499 10.8501 12.0666 10.9668 11.7666 11.0584V19.6001H13.4333V11.0584C13.1333 10.9668 12.8499 10.8501 12.5999 10.7001Z" fill="#777777"/>
<path d="M22.5999 19.6001H2.59993C2.1416 19.6001 1.7666 19.9751 1.7666 20.4334C1.7666 20.8918 2.1416 21.2668 2.59993 21.2668H22.5999C23.0583 21.2668 23.4333 20.8918 23.4333 20.4334C23.4333 19.9751 23.0583 19.6001 22.5999 19.6001Z" fill="#777777"/>
<path d="M13.4333 11.0584C13.8583 11.1918 14.325 11.2668 14.825 11.2668C15.6833 11.2668 16.4583 11.0501 17.05 10.7001C17.6416 11.0501 18.4166 11.2668 19.275 11.2668C20.8833 11.2668 22.225 10.5168 22.5333 9.51676C22.575 9.3751 22.6 9.2251 22.6 9.0751V4.18343C22.6 3.7251 22.225 3.3501 21.7666 3.3501H3.43331C2.97498 3.3501 2.59998 3.7251 2.59998 4.18343V9.0751C2.59998 9.2251 2.62498 9.3751 2.66664 9.51676C2.97498 10.5168 4.31664 11.2668 5.92498 11.2668C6.78331 11.2668 7.55831 11.0501 8.14998 10.7001C8.74164 11.0501 9.51664 11.2668 10.375 11.2668C10.875 11.2668 11.3416 11.1834 11.7666 11.0584C12.0666 10.9668 12.35 10.8501 12.6 10.7001C12.85 10.8501 13.1333 10.9668 13.4333 11.0584ZM17.6083 5.01676H20.9333V9.03343C20.825 9.21676 20.2416 9.6001 19.275 9.6001C18.7833 9.6001 18.3916 9.5001 18.1083 9.38343C17.8333 9.26676 17.6583 9.1251 17.6083 9.04176V5.01676ZM5.93331 9.6001C4.95831 9.6001 4.36664 9.20843 4.27498 9.03343V5.01676H7.05831V9.0751C7.05831 9.1751 7.08331 9.2751 7.10831 9.3751C6.82498 9.5001 6.43331 9.6001 5.94164 9.6001H5.93331ZM13.1666 5.01676H15.95V9.0751C15.95 9.1751 15.975 9.2751 16 9.3751C15.7166 9.5001 15.325 9.6001 14.8333 9.6001C14.3416 9.6001 13.95 9.5001 13.6666 9.38343C13.3916 9.26676 13.2166 9.1251 13.1666 9.04176V5.01676ZM10.3833 9.6001C9.89164 9.6001 9.49998 9.5001 9.21664 9.38343C8.94164 9.26676 8.76664 9.1251 8.71664 9.04176V5.01676H11.5V9.0751C11.5 9.1751 11.525 9.2751 11.55 9.3751C11.2666 9.5001 10.875 9.6001 10.3833 9.6001Z" fill="#777777"/>
</svg>
