<svg width="25" height="24" viewBox="0 0 25 24" fill="none" xmlns="http://www.w3.org/2000/svg">
<path d="M8.66667 9.41667H12M8.66667 12.3333H14.5M12 19C16.1421 19 19.5 15.6421 19.5 11.5C19.5 7.35786 16.1421 4 12 4C7.85786 4 4.5 7.35786 4.5 11.5C4.5 12.4976 4.69478 13.4497 5.04839 14.3204C5.11606 14.4871 5.1499 14.5704 5.165 14.6377C5.17976 14.7036 5.18516 14.7524 5.18517 14.8199C5.18518 14.8889 5.17265 14.9641 5.14759 15.1145L4.65344 18.0794C4.60169 18.3898 4.57582 18.5451 4.62397 18.6573C4.66611 18.7556 4.7444 18.8339 4.84265 18.876C4.95491 18.9242 5.11015 18.8983 5.42063 18.8466L8.38554 18.3524C8.53591 18.3273 8.61109 18.3148 8.68011 18.3148C8.74763 18.3148 8.79638 18.3202 8.86227 18.335C8.92962 18.3501 9.01294 18.3839 9.17958 18.4516C10.0503 18.8052 11.0024 19 12 19Z" stroke="#777777" stroke-width="2" stroke-linecap="round" stroke-linejoin="round"/>
<path d="M19.8599 12.3005C20.2694 13.1119 20.5 14.029 20.5 15C20.5 15.7981 20.3442 16.5598 20.0613 17.2563C20.0072 17.3896 19.9801 17.4563 19.968 17.5102C19.9562 17.5629 19.9519 17.6019 19.9519 17.6559C19.9519 17.7111 19.9619 17.7713 19.9819 17.8916L20.3772 20.2635C20.4186 20.5119 20.4393 20.6361 20.4008 20.7259C20.3671 20.8045 20.3045 20.8671 20.2259 20.9008C20.1361 20.9393 20.0119 20.9186 19.7635 20.8772L17.3916 20.4819C17.2713 20.4619 17.2111 20.4519 17.1559 20.4519C17.1019 20.4519 17.0629 20.4562 17.0102 20.468C16.9563 20.4801 16.8897 20.5071 16.7563 20.5613C16.0598 20.8442 15.2981 21 14.5 21C13.0607 21 11.7398 20.4932 10.706 19.6484C10.2978 19.3148 9.93435 18.9286 9.62605 18.5" stroke="#777777" stroke-width="2" stroke-linecap="round" stroke-linejoin="round"/>
</svg>
