<svg width="25" height="24" viewBox="0 0 25 24" fill="none" xmlns="http://www.w3.org/2000/svg">
<rect x="9.5" y="15" width="9" height="2" rx="1" fill="#004B8B"/>
<rect x="9.5" y="11" width="9" height="2" rx="1" fill="#004B8B"/>
<rect x="9.5" y="7" width="9" height="2" rx="1" fill="#004B8B"/>
<path d="M4.5 9C4.5 8.44771 4.94772 8 5.5 8H7.5V17.5C7.5 18.3284 6.82843 19 6 19C5.17157 19 4.5 18.3284 4.5 17.5V9Z" fill="#F5F5F5" stroke="#004B8B" stroke-width="2"/>
<mask id="path-5-outside-1_534_2977" maskUnits="userSpaceOnUse" x="6.5" y="4" width="15" height="16" fill="black">
<rect fill="white" x="6.5" y="4" width="15" height="16"/>
<path d="M8.5 7C8.5 6.44772 8.94772 6 9.5 6H18.5C19.0523 6 19.5 6.44772 19.5 7V16C19.5 17.1046 18.6046 18 17.5 18H8.5V7Z"/>
</mask>
<path d="M8.5 18H6.5V20H8.5V18ZM9.5 8H18.5V4H9.5V8ZM17.5 7V16H21.5V7H17.5ZM17.5 16H8.5V20H17.5V16ZM10.5 18V7H6.5V18H10.5ZM17.5 16V20C19.7091 20 21.5 18.2091 21.5 16H17.5ZM18.5 8C17.9477 8 17.5 7.55228 17.5 7H21.5C21.5 5.34315 20.1569 4 18.5 4V8ZM9.5 4C7.84315 4 6.5 5.34314 6.5 7H10.5C10.5 7.55229 10.0523 8 9.5 8V4Z" fill="#004B8B" mask="url(#path-5-outside-1_534_2977)"/>
</svg>
