<svg xmlns="http://www.w3.org/2000/svg" width="41" height="40" viewBox="0 0 41 40" fill="none">
    <path d="M20.5 40C31.5457 40 40.5 31.0457 40.5 20C40.5 8.9543 31.5457 0 20.5 0C9.4543 0 0.5 8.9543 0.5 20C0.5 31.0457 9.4543 40 20.5 40Z" fill="#29ADE3"/>
    <path d="M30.3869 13.871C30.3869 13.871 28.5439 14.9184 27.9814 14.744C27.9814 14.744 26.7413 13.5195 25.0526 13.5195C23.3652 13.5195 21.1538 14.8334 21.1538 17.5525C21.1538 17.5525 21.0958 18.0804 21.2514 18.3134C21.2514 18.3134 16.654 18.7782 13.0651 14.298C13.0651 14.298 11.2611 17.266 14.2492 19.4377C14.2492 19.4377 13.4789 19.8068 12.5253 19.0887C12.5253 19.0887 12.3476 21.9597 15.6639 22.9492C15.6639 22.9492 14.9861 23.2981 13.938 23.1041C13.938 23.1041 14.481 25.6457 17.5849 25.7811C17.5849 25.7811 15.5675 27.7595 11.7852 27.4495C11.7852 27.4495 18.0857 32.3556 25.5572 26.2472C25.5572 26.2472 29.0295 23.2597 29.0101 17.4209C29.0101 17.4209 30.4455 16.4704 30.9494 15.4809C30.9494 15.4809 30.2124 16.1404 28.7776 15.9275C28.7776 15.9275 30.3094 14.8605 30.3869 13.871Z" fill="white"/>
</svg>