<svg width="20" height="21" viewBox="0 0 20 21" fill="none" xmlns="http://www.w3.org/2000/svg">
<g clip-path="url(#clip0_178_3780)">
<path d="M17.0711 3.42891C15.1823 1.5402 12.6711 0.5 10 0.5C7.32891 0.5 4.8177 1.5402 2.92891 3.42891C1.0402 5.3177 0 7.82891 0 10.5C0 13.1711 1.0402 15.6823 2.92891 17.5711C4.8177 19.4598 7.32891 20.5 10 20.5C12.6711 20.5 15.1823 19.4598 17.0711 17.5711C18.9598 15.6823 20 13.1711 20 10.5C20 7.82891 18.9598 5.3177 17.0711 3.42891ZM6.26531 2.50199C5.94035 3.04301 5.64902 3.68027 5.39754 4.40531C5.26297 4.79324 5.14332 5.19922 5.03715 5.61898C4.33379 5.47059 3.66324 5.29035 3.03637 5.08008C3.89008 3.98566 4.99574 3.09723 6.26531 2.50199ZM2.35734 6.08531C3.11145 6.35492 3.92848 6.58187 4.78977 6.76371C4.60918 7.76004 4.50289 8.81922 4.47488 9.91406H1.1918C1.28316 8.52652 1.69613 7.22551 2.35734 6.08531ZM2.35508 14.9109C1.6952 13.7716 1.28309 12.4719 1.1918 11.0859H4.47488C4.50285 12.1798 4.60898 13.2382 4.78926 14.2338C3.92746 14.4152 3.1098 14.6417 2.35508 14.9109ZM3.03375 15.9165C3.66129 15.7065 4.3325 15.5266 5.03648 15.3785C5.14277 15.7992 5.2627 16.2061 5.39754 16.5948C5.64902 17.3198 5.94035 17.957 6.26531 18.498C4.99445 17.9022 3.88785 17.0125 3.03375 15.9165ZM9.41406 19.3082C9.08438 19.2865 8.75941 19.2473 8.44051 19.1902C7.58168 18.6605 6.72398 17.2433 6.18805 15.1691C7.22102 15.0097 8.3066 14.9152 9.41406 14.8907V19.3082ZM9.41406 13.7185C8.22246 13.7439 7.05219 13.8471 5.93824 14.0226C5.77785 13.132 5.67434 12.1487 5.64629 11.0859H9.41406V13.7185ZM9.41406 9.91406H5.64629C5.67434 8.85059 5.77797 7.86656 5.93855 6.97543C7.05219 7.15145 8.2223 7.25527 9.41406 7.28121V9.91406ZM9.41406 6.10898C8.30652 6.08395 7.22113 5.98898 6.18852 5.82902C6.72449 3.75586 7.58195 2.3393 8.44055 1.8098C8.75945 1.75273 9.08441 1.71352 9.41406 1.6918V6.10898ZM17.6449 6.08906C18.3048 7.2284 18.7169 8.52809 18.8082 9.91406H15.5251C15.4971 8.82016 15.391 7.76184 15.2107 6.76625C16.0725 6.5848 16.8902 6.35828 17.6449 6.08906ZM16.9662 5.08348C16.3387 5.29348 15.6675 5.47344 14.9635 5.62148C14.8572 5.20082 14.7373 4.79402 14.6025 4.40531C14.351 3.68027 14.0596 3.04301 13.7347 2.50199C15.0055 3.09781 16.1121 3.9875 16.9662 5.08348ZM10.5859 1.6918C10.9156 1.71352 11.2405 1.75273 11.5595 1.8098C12.4183 2.33945 13.276 3.75668 13.812 5.83086C12.779 5.99027 11.6934 6.08477 10.5859 6.1093V1.6918ZM10.5859 7.28152C11.7775 7.25613 12.9478 7.15285 14.0618 6.97738C14.2221 7.86801 14.3257 8.85137 14.3537 9.9141H10.5859V7.28152ZM10.5859 11.0859H14.3537C14.3257 12.1494 14.222 13.1334 14.0614 14.0246C12.9478 13.8486 11.7777 13.7447 10.5859 13.7188V11.0859ZM11.5595 19.1902C11.2406 19.2473 10.9156 19.2865 10.5859 19.3082V14.891C11.6935 14.9161 12.7789 15.011 13.8115 15.171C13.2755 17.2441 12.4181 18.6607 11.5595 19.1902ZM13.7347 18.498C14.0596 17.957 14.351 17.3198 14.6025 16.5948C14.737 16.2068 14.8567 15.8008 14.9629 15.381C15.6662 15.5294 16.3368 15.7096 16.9637 15.9199C16.1099 17.0143 15.0043 17.9028 13.7347 18.498ZM17.6427 14.9147C16.8886 14.6451 16.0715 14.4181 15.2102 14.2363C15.3908 13.24 15.4971 12.1808 15.5251 11.0859H18.8082C18.7168 12.4735 18.3039 13.7745 17.6427 14.9147Z" fill="black"/>
</g>
<defs>
<clipPath id="clip0_178_3780">
<rect width="20" height="20" fill="white" transform="translate(0 0.5)"/>
</clipPath>
</defs>
</svg>
