<svg xmlns="http://www.w3.org/2000/svg" width="41" height="40" viewBox="0 0 41 40" fill="none">
    <path d="M20.5 40C31.5457 40 40.5 31.0457 40.5 20C40.5 8.9543 31.5457 0 20.5 0C9.4543 0 0.5 8.9543 0.5 20C0.5 31.0457 9.4543 40 20.5 40Z" fill="#ED1F23"/>
    <path d="M31.2717 16.4114C31.2717 14.6395 29.8344 13.2028 28.0626 13.2028C28.0626 13.2028 25.1325 12.9238 20.947 12.9238C16.7615 12.9238 13.5525 13.2028 13.5525 13.2028C11.7806 13.2028 10.3433 14.6395 10.3433 16.4114C10.3433 16.4114 10.2041 18.2052 10.2041 20.3606C10.2041 22.5154 10.3433 24.2242 10.3433 24.2242C10.3433 25.9966 11.7806 27.4334 13.5525 27.4334C13.5525 27.4334 17.6597 27.7124 20.7379 27.7124C23.8154 27.7124 28.0626 27.4334 28.0626 27.4334C29.8344 27.4334 31.2717 25.9966 31.2717 24.2242C31.2717 24.2242 31.411 22.5154 31.411 20.3606C31.411 18.2058 31.2717 16.4114 31.2717 16.4114ZM19.0631 23.5269V17.1092L24.3653 20.2485L19.0631 23.5269Z" fill="white"/>
</svg>